<svg version="1.1" xmlns="http://www.w3.org/2000/svg" xmlns:xlink="http://www.w3.org/1999/xlink" width="840" height="519"><defs><clipPath id="ATmKOXAiXzLD"><path fill="none" stroke="none" d=" M 42 5 L 810 5 L 810 474 L 42 474 L 42 5 Z"/></clipPath><clipPath id="rfsiJKFnwcRe"><path fill="none" stroke="none" d=" M 42 5 L 810 5 L 810 474 L 42 474 L 42 5 Z"/></clipPath><clipPath id="ydtaNCqnJIJT"><path fill="none" stroke="none" d=" M 42 5 L 810 5 L 810 474 L 42 474 L 42 5 Z"/></clipPath><clipPath id="qdHunNFOevBM"><path fill="none" stroke="none" d=" M 42 5 L 810 5 L 810 474 L 42 474 L 42 5 Z"/></clipPath><clipPath id="mQZnseQmQAST"><path fill="none" stroke="none" d=" M 42 5 L 810 5 L 810 474 L 42 474 L 42 5 Z"/></clipPath><clipPath id="nRPvstWXOBXK"><path fill="none" stroke="none" d=" M 42 5 L 810 5 L 810 474 L 42 474 L 42 5 Z"/></clipPath><clipPath id="nOuLgxyPfDKx"><path fill="none" stroke="none" d=" M 42 5 L 810 5 L 810 474 L 42 474 L 42 5 Z"/></clipPath><clipPath id="HZrwlPBfdZiu"><path fill="none" stroke="none" d=" M 42 5 L 810 5 L 810 474 L 42 474 L 42 5 Z"/></clipPath></defs><g transform="scale(1,1) translate(0.5,0.5)"><rect fill="#ffffff" stroke="none" x="0" y="0" width="840" height="519"/><rect fill="#FFFFFF" stroke="none" x="42" y="5" width="768" height="469"/><rect fill="#ffffff" stroke="none" x="42" y="5" width="768" height="469"/><g><rect fill="none" stroke="#e5e5e5" x="42" y="5" width="768" height="469" stroke-linejoin="bevel" stroke-miterlimit="10"/></g><g clip-path="url(#ATmKOXAiXzLD)"><g><g><path fill="none" stroke="#e5e5e5" paint-order="fill stroke markers" d=" M 129 474 L 129 5" stroke-linejoin="bevel" stroke-miterlimit="10"/><path fill="none" stroke="#e5e5e5" paint-order="fill stroke markers" d=" M 275 474 L 275 5" stroke-linejoin="bevel" stroke-miterlimit="10"/><path fill="none" stroke="#e5e5e5" paint-order="fill stroke markers" d=" M 421 474 L 421 5" stroke-linejoin="bevel" stroke-miterlimit="10"/><path fill="none" stroke="#e5e5e5" paint-order="fill stroke markers" d=" M 567 474 L 567 5" stroke-linejoin="bevel" stroke-miterlimit="10"/><path fill="none" stroke="#e5e5e5" paint-order="fill stroke markers" d=" M 713 474 L 713 5" stroke-linejoin="bevel" stroke-miterlimit="10"/></g></g></g><g clip-path="url(#rfsiJKFnwcRe)"><g><g><path fill="none" stroke="#e5e5e5" paint-order="fill stroke markers" d=" M 42 437 L 810 437" stroke-linejoin="bevel" stroke-miterlimit="10"/><path fill="none" stroke="#e5e5e5" paint-order="fill stroke markers" d=" M 42 365 L 810 365" stroke-linejoin="bevel" stroke-miterlimit="10"/><path fill="none" stroke="#e5e5e5" paint-order="fill stroke markers" d=" M 42 293 L 810 293" stroke-linejoin="bevel" stroke-miterlimit="10"/><path fill="none" stroke="#e5e5e5" paint-order="fill stroke markers" d=" M 42 221 L 810 221" stroke-linejoin="bevel" stroke-miterlimit="10"/><path fill="none" stroke="#e5e5e5" paint-order="fill stroke markers" d=" M 42 149 L 810 149" stroke-linejoin="bevel" stroke-miterlimit="10"/><path fill="none" stroke="#e5e5e5" paint-order="fill stroke markers" d=" M 42 76 L 810 76" stroke-linejoin="bevel" stroke-miterlimit="10"/></g></g></g><g clip-path="url(#ydtaNCqnJIJT)"><g><g><path fill="none" stroke="none"/><path fill="none" stroke="#e0212d" paint-order="fill stroke markers" d=" M 420.5819240985407 292.9037206516129 L 420.5818961861476 292.903743659012 L 420.5802994964857 292.90456086206166 L 420.57101642338375 292.9086057054295 L 420.5525063521014 292.9107947534537 L 420.52965060918706 292.91779083398825 L 420.50079070423004 292.92749122493956 L 420.4710374928765 292.93660748342967 L 420.4460459307491 292.9431105243275 L 420.41075727497486 292.95015687984414 L 420.3773586256491 292.9566290115293 L 420.3357160702512 292.9632492655208 L 420.30091979637905 292.9614232847234 L 420.25411544488026 292.95437765999054 L 420.2092105757404 292.93989302207217 L 420.15724937431105 292.92485999394785 L 420.11279319590267 292.9113933587931 L 420.0722558800991 292.8988988277225 L 420.0653934852763 292.88747487279653 L 420.1186507192942 292.866927212946 L 420.1750153720379 292.8401711114969 L 420.26147130092426 292.8140369574181 L 420.3498947347586 292.7891986593246 L 420.4415224455706 292.77289759539644 L 420.5295289223502 292.76472923902867 L 420.6087919766022 292.76718808275365 L 420.6809311179014 292.7716332555104 L 420.732934285291 292.784848639652 L 420.776753750509 292.79782757745124 L 420.7997146377852 292.81826288665 L 420.8170254008783 292.8389082625777 L 420.82440870731745 292.8579002360706 L 420.8289926173595 292.8766303474863 L 420.82062558394216 292.8950773347975 L 420.8094207915631 292.91515136382975 L 420.79935793562254 292.9334751090814 L 420.78737800527404 292.9481612900183 L 420.7782976355199 292.9554621934748 L 420.76704183469764 292.95179639738774 L 420.7559130195733 292.93669913799164 L 420.74124442925165 292.91048822274473 L 420.72412003989405 292.88444841484306 L 420.7107322017243 292.86268204814183 L 420.7054965105194 292.8387892162248 L 420.7020253273157 292.8207106006224 L 420.70203476923183 292.81196362312096 L 420.6983737703699 292.8205290470595 L 420.69993300380617 292.82637824859614 L 420.70305360382076 292.8388268725875 L 420.7102915506442 292.844710034569 L 421.2238626083175 292.8703700800901 L 421.300675374859 292.8762161883956 L 421.3917286925264 292.8826860458313 L 421.4807455478134 292.8834382092061 L 421.56276848434095 292.87828173396593 L 421.5582247385612 292.882587119131 L 421.55161692703166 292.8828669043097 L 421.55019569344574 292.8821449508631 L 421.5445035523111 292.8850660237099 L 421.4433327838615 292.9493918584552 L 421.3521382538827 293.0218378955391 L 421.26951660978926 293.103578015159 L 421.18955420360464 293.19532480706965 L 421.07634812809613 293.29100761705865 L 420.9675730732771 293.40076028218925 L 420.86887783755316 293.5209494800522 L 420.78695300856793 293.625657452557 L 420.77412345874444 293.52390883504773 L 420.75881507874846 293.43818437322403 L 420.7443626921583 293.3659565296884 L 420.72962698009644 293.2994513781025 L 420.7553541193297 293.1400888953 L 420.77226420863644 292.99739970574876 L 420.7778526161726 292.87265174445486 L 420.77562420499197 292.7598292331856 L 420.80798298575723 292.5423155658377 L 420.8345926849397 292.3372493465073 L 420.8528075263723 292.14692080106875 L 420.87115844697746 292.0118856053226 L 420.90975156092384 292.18565260862505 L 420.9465481782353 292.35065588519836 L 420.98446810311015 292.51462000407855 L 421.02308861646026 292.6637827112841 L 421.0552070065514 292.74246829762484 L 421.08960250465424 292.8218191659723 L 421.12547478302497 292.8940821039276 L 421.1406138714198 292.96219161143887 L 420.96350704935884 292.96982197656945 L 420.80897254275754 292.983663642385 L 420.6728458547167 293.01183856468504 L 420.57417800564855 293.05850539019764 L 420.6289394065902 293.2035996982685 L 420.67888493315206 293.3511959747053 L 420.7295208498999 293.504701486144 L 420.7882957493211 293.6170968333116 L 420.9270164487126 293.4154567969963 L 421.0551653975314 293.23815773943295 L 421.1685076541953 293.0834207649773 L 421.2675636374033 292.9531880490428 L 421.2985917963825 292.8588069791082 L 421.3368606727202 292.7723785625377 L 421.3784099307689 292.69921009951776 L 421.39164098723904 292.627796298681 L 421.1768482910408 292.51666478741055 L 420.98885778673406 292.4116809986389 L 420.81683409796966 292.3070958986019 L 420.6704637893117 292.20126409828663 L 420.617338094103 292.1135220013272 L 420.5670478653654 292.0138143368352 L 420.51495666761815 291.91072450434933 L 420.46925819735606 291.8244650080227 L 420.4883053126735 291.9062496214532 L 420.49391862953104 291.9598005138911 L 420.4929845597227 291.98601821251214 L 420.4893332917284 291.99561523431197 L 420.5390233893889 292.08214063512594 L 420.5738907633964 292.1346117147746 L 420.60008672542136 292.17264358269483 L 420.6337049396647 292.2181110996753 L 420.7797733449674 292.3991954154693 L 420.90118673168695 292.55554547325636 L 421.00526425052476 292.686855351839 L 421.0873790736382 292.78589227444564 L 421.1311883065727 292.75798367662355 L 421.175338604293 292.7295946094852 L 421.21800933421315 292.7099477823537 L 421.2582179251608 292.720927178215 L 421.26582258546745 292.98295644531026 L 421.28567566308345 293.2155505829276 L 421.31701602568995 293.42261115311146 L 421.34497470357917 293.6054452843964 L 421.33282765726466 293.7215219001071 L 421.3305378013915 293.8315676515206 L 421.3398403408763 293.93801619972174 L 421.3531142301612 294.0133704537383 L 421.30552840075654 293.8845869365793 L 421.28066463169165 293.78819390558283 L 421.2745579640944 293.7202007102852 L 421.27544943054954 293.66063918030034 L 421.16350077010776 293.4793573008994 L 421.07932915602413 293.3423717693211 L 421.0217739210024 293.2387032569028 L 420.98188494443895 293.14751595975116 L 420.93714664735637 292.9082709508232 L 420.9091189950377 292.7088480620072 L 420.90111146831254 292.54058755626187 L 420.8978442423946 292.4215236645765 L 420.80520073948327 292.4670153058206 L 420.73714328922415 292.4993535451448 L 420.6769482865275 292.5231752138442 L 420.63277223812685 292.54250956792384 L 420.5995137961561 292.56402706705893 L 420.57803664682433 292.57571218162775 L 420.5714216502813 292.5799613111438 L 420.583854601916 292.5808087850993 L 420.6564808129773 292.601538482552 L 420.72560018559733 292.60231008939445 L 420.7916022726468 292.58820771017616 L 420.85041152330547 292.57380441604903 L 420.8642343185105 292.59711332655013 L 420.88277198678844 292.6001036600568 L 420.9094362978097 292.58836233393794 L 420.93544751038917 292.5705001647226 L 420.9309531583236 292.59381263674453 L 420.9348778679476 292.59308239058237 L 420.9441081355561 292.5703155704273 L 420.9523623928919 292.5480265988467 L 420.94366658362713 292.5942423039904 L 420.93845437398323 292.6174285772185 L 420.939406724225 292.62386429571336 L 420.93418805566466 292.63215637293 L 420.8508854038113 292.75310718185773 L 420.788650989729 292.8359234393485 L 420.75113000493127 292.88674523562077 L 420.7351804244977 292.91182045937103 L 420.7309256642402 292.9386170946438 L 420.7375717873429 292.9473288937275 L 420.74902524800746 292.93816362652717 L 420.7660860680289 292.91367721025915 L 420.75269598623555 292.9264802087206 L 420.7487675882303 292.9190136945466 L 420.7456067814604 292.8897591306036 L 420.73677066073316 292.86369070611323 L 420.7322105127049 292.98216231016875 L 420.7320867224709 293.0777836839239 L 420.73486815288175 293.152977316712 L 420.7483126425481 293.18179831904575 L 420.7599108339339 293.0507341014007 L 420.77450604756456 292.9155453245196 L 420.78741873044237 292.7839078605713 L 420.80332610695575 292.6484600408003 L 420.8107636852906 292.4664956933747 L 420.82514527875645 292.28537391441375 L 420.8420983538523 292.1064238231629 L 420.8589738369643 291.96607806390296 L 420.85700988442034 292.0804735745948 L 420.8514096468687 292.1627401357087 L 420.84313399012274 292.2155632011306 L 420.82551314804584 292.23361534052174 L 420.7340046807305 292.1852279140686 L 420.65312995683854 291.97002443055123 L 420.5914928990488 291.51488081996257 L 420.56467001950267 290.83776811309735 L 420.6747184560849 290.194262991731 L 420.78704135974687 289.7593268454075 L 420.9052345006676 289.9646736520987 L 421.04948583428677 291.1465504885866 L 421.3065720256868 293.3167093319532 L 421.57754804904647 296.1291756177178 L 421.86516577673484 298.57149751484394 L 422.17880845069885 299.2399022361407 L 422.5835699833357 296.9276849787969 L 423.0239474773407 290.467220096634 L 423.50048062617964 279.3356215013908 L 424.0294482110621 263.67628704126065 L 424.7088783636198 244.8543038276526 L 425.39301849407155 225.14845920526065 L 426.0862889488975 208.49959395481991 L 426.85440179279874 198.78284054536087 L 427.93210804593434 196.4892232968257 L 428.89385023221865 198.64391059141894 L 429.72270245499664 198.97816133499146 L 429.40317835965 192.64897814163794 L 428.87928109221406 184.83967313399683 L 429.2596337674738 185.84828292406524 L 429.6710844259996 187.0504072079292 L 430.112410904811 188.37681324665363 L 430.2067964794872 188.269433259964 L 430.40804163230644 188.51201879061188 L 430.70580883340523 189.0335910136883 L 431.0922886408292 189.79999373509332 L 431.10027648485624 189.17568628604596 L 431.2595438475137 189.00130992669327 L 431.5451405462328 189.19774889945984 L 431.9346064127409 189.7113390152271 L 431.5964028589018 189.04752529584445 L 431.4801260445144 188.84185701150162 L 431.5416377738282 189.01336910174444 L 431.75283972038017 189.50213555189282 L 431.3142719467918 188.72037071448108 L 431.11421469070103 188.3940246655391 L 431.1057895440322 188.43936269099896 L 431.252793939821 188.79233009998615 L 430.79948515106037 187.9546733085926 L 430.5687122795608 187.54197771732623 L 430.5269139792893 187.49743962287903 L 430.60323308064386 187.6752823499533 L 430.3200937616956 186.90452731572665 L 430.2079332487924 186.49369823015655 L 430.22882043293544 186.3632234610044 L 430.3581869555044 186.4651845601889 L 429.9601175402547 185.75744344637945 L 429.7617692454831 185.40224827252902 L 429.6646799003685 185.2287836625026 L 429.67696734313125 185.2344605922699 L 429.4005050481021 184.5272441643935 L 429.2475214633313 184.05942214452304 L 429.1883594198541 183.77630677590003 L 429.2037047176571 183.63746283604547 L 429.1622006720239 183.1944386775677 L 429.18908934540804 182.89751804791965 L 429.26961830055325 182.70809782468356 L 429.38941148506416 182.59657195898205 L 429.27819791730946 182.33762654891382 L 429.2410440539266 182.15651528651898 L 429.25955000552506 182.01726708045373 L 429.3135889724061 181.90316079213068 L 429.28947477759897 181.7859493952531 L 429.30761522251174 181.68034129876358 L 429.35883021511876 181.57355480927689 L 429.4329258174687 181.4572207560906 L 429.49660937445503 181.45381459823022 L 429.5844783782959 181.41525448285617 L 429.6931301357982 181.33863313381488 L 429.8215905063755 181.21942621011002 L 429.6578527576321 181.41388685886676 L 429.5483138849447 181.51435131293078 L 429.4769177017631 181.53028112191421 L 429.42523929889387 181.4747762313256 L 429.31107339439814 181.55080408316394 L 429.2149777705853 181.5382632292234 L 429.1484783979563 181.44678724729098 L 429.10691778581224 181.281132716399 L 429.05196885957827 181.43982010621292 L 429.0139752010723 181.46970140016998 L 428.9825193258432 181.40349635711084 L 428.9618382831196 181.25118261117203 L 428.93520524685204 181.618884233328 L 428.91201297739053 181.81226110458374 L 428.8842241350111 181.866923057116 L 428.8485197884696 181.8030834014599 L 428.80774784402536 182.01115147884076 L 428.75671125349106 182.0644458073836 L 428.7007457617875 181.9948604106903 L 428.64076731126386 181.82752860509433 L 428.79305578064134 182.03418605144208 L 428.9013871758849 182.0815712121817 L 428.96988214974874 182.00544874484723 L 429.00372415270124 181.82780385017395 L 428.9469591151227 182.08395380240222 L 428.88607831996876 182.16079018666193 L 428.8197714910402 182.0898715716142 L 428.74642321932447 181.90251568647534 L 428.8350923129491 182.0820012826186 L 428.8828317285894 182.08778142929077 L 428.890903878474 181.9615987630991 L 428.8712138375083 181.72776086513812 L 428.81012526920864 181.93107236348666 L 428.73768151775823 181.94931595142072 L 428.65556489294704 181.82067328232986 L 428.56516453774424 181.57090557538547 L 428.6476825672192 181.76121174372162 L 428.6872263656868 181.76091069441577 L 428.6899257848551 181.6060767357166 L 428.66045680832076 181.3271760573754 L 428.69652774936554 181.56436850474432 L 428.7016823726696 181.60162120599014 L 428.6779570726248 181.48158854704639 L 428.6371475984762 181.23459909512445 L 428.66166211012956 181.39654641885025 L 428.66019138084664 181.3644889684824 L 428.63852368763514 181.18270679620596 L 428.59295827530246 180.88155427345862 L 428.6223353312566 181.1952734543727 L 428.60265399283105 181.2625966805678 L 428.5648942150913 181.17438063254724 L 428.50022727106955 180.9337304188655 L 428.5466906767625 181.17488811566278 L 428.55387897491454 181.19187589792105 L 428.52774089561717 181.03949334071234 L 428.4735305974772 180.75066663668707 L 428.42344475945276 180.81844573754532 L 428.34998063517145 180.6965207686791 L 428.25860124420336 180.42516352580145 L 428.1497264841101 180.0333865605868 L 428.260520698212 180.27351208833548 L 428.3181168283735 180.2775117433988 L 428.3293452807835 180.09591880211462 L 428.3038103962993 179.76009400074298 L 428.2962157983047 179.9059480887193 L 428.25241319425817 179.81846316044147" stroke-linejoin="bevel" stroke-miterlimit="10" stroke-width="2"/></g></g></g><g clip-path="url(#qdHunNFOevBM)"><g><g><path fill="none" stroke="none"/><path fill="none" stroke="#208900" paint-order="fill stroke markers" d=" M 420.88375727750446 292.6019010856891 L 420.895261491655 292.61331562547446 L 420.90640971752316 292.6244668815142 L 420.91720083329704 292.6353535098382 L 420.9276278701457 292.64596855540117 L 420.9376838932326 292.6563047103656 L 420.9473635654528 292.6663566324502 L 420.9566653910574 292.67612279288903 L 420.96558297911844 292.6855966566274 L 420.9741101426738 292.6947715542136 L 420.9822414766301 292.70364182417353 L 420.9899700461508 292.71219962108165 L 420.9972890523764 292.72043725070904 L 421.00419587774593 292.72835175632144 L 421.0106877007327 292.7359399627894 L 421.01676074796984 292.7431973510135 L 421.0224114500559 292.75011965388865 L 421.027636135607 292.75670243631333 L 421.03243092927306 292.76294099439224 L 421.0367910038639 292.7688288098703 L 421.0407128919612 292.77436157364326 L 421.044193398101 292.7795348086108 L 421.04722912285354 292.78434350008433 L 421.0498202361903 292.78878853844407 L 421.05196197890973 292.79286315344063 L 421.0536491158899 292.7965586428674 L 421.0548799814104 292.79987106721205 L 421.0556529777391 292.8027966717581 L 421.0559672210243 292.80533191178426 L 421.0558224053173 292.80747211699446 L 421.05521978840727 292.80921430545504 L 421.05416049210584 292.8105580823747 L 421.0526462501222 292.81150192738727 L 421.0506737990039 292.8120460252887 L 421.04823691779444 292.81218788133435 L 421.0453405356669 292.81192486638275 L 421.0419846866157 292.8112568964358 L 421.0381693366465 292.8101839798933 L 421.0338944857592 292.80870611675516 L 421.02916016794825 292.8068233070215 L 421.0239663492192 292.8045355506922 L 421.0183130295722 292.80184283936757 L 421.0122002430015 292.7987451814473 L 421.0056279555127 292.79524256853176 L 420.99884214984195 292.79133501742035 L 420.9921508823122 292.7871767990829 L 420.98558960897583 292.7830827049195 L 420.9791299445944 292.7790520461455 L 420.97284953214313 292.7751332560841 L 420.9667340600229 292.7713173721344 L 420.9607052393667 292.76755551578333 L 420.95464534792274 292.7637742810632 L 420.9485094452297 292.7599456377972 L 420.9424021657352 292.75613486093397 L 420.93639850085907 292.75238871223365 L 420.93050439960354 292.7487108876141 L 420.9247126551775 292.74509700237275 L 420.91900987382775 292.7415386062975 L 420.91340581191764 292.7380417808532 L 420.90797260534634 292.7346515994376 L 420.90283763074615 292.7314475410833 L 420.89811952821503 292.72850362494444 L 428.9810023643158 187.94455805191626 L 428.10866082893625 177.98160652013928 L 429.4076949779804 186.2794629427103 L 429.742422410944 187.34168531344488 L 430.0592318576771 188.5857156606821 L 430.35618428345566 190.0027031348302 L 430.63255085054334 191.58444199195276 L 430.88880040829 193.32777551504284 L 431.1250711095202 195.2277320898496 L 431.33996945999485 197.24180355438818 L 431.53427760050846 199.24713598764862 L 431.70917907651966 201.22108188042273 L 431.86545820445804 203.16549053558936 L 432.00282780049923 205.06790711329535 L 432.1222212120727 206.9302239234631 L 432.22463488002404 208.7574727902046 L 432.31073454867357 210.5517438558432 L 432.3805539403643 212.29998878332287 L 432.4349252354968 214.0041428896097 L 432.47466103375615 215.66941002699048 L 432.5003400540614 217.2981039744157 L 432.5123963356018 218.87850961318384 L 432.51155871611377 220.41266547716583 L 432.4984341977717 221.90531524328088 L 432.47349598119547 223.3586737742791 L 432.437440269596 224.76383861211633 L 432.39082620117694 226.12260315051446 L 432.33402580952907 227.43871760368347 L 432.2673687033601 228.71390655407538 L 432.1916337600121 229.94149960921362 L 432.10723108668907 231.1226880642084 L 432.0143706321716 232.26007384520312 L 431.91327866250344 233.35456440081964 L 431.80482543169796 234.400323675229 L 431.6893198799301 235.39788925647736 L 431.5668512082362 236.34869327911966 L 431.43753798872564 237.25279595301703 L 431.30190346162397 238.1065846864994 L 431.16126714957943 238.90787042104282 L 431.0219666774456 239.650614967713 L 430.8859590289357 240.34574211560764 L 430.7539741296035 241.02323207488428 L 430.62483822434814 241.68526530265808 L 430.498566542615 242.3328180588209 L 430.3750546539223 242.96666016945474 L 430.25423185013153 243.58714429231793 L 430.13603177437415 244.19457577742065 L 430.02020205298624 244.78947070928723 L 429.9065153321067 245.3723365710332 L 429.7950042462611 245.94404210494116 L 429.6856660759056 246.50466042298538 L 429.57850843576284 247.05436355334064 L 429.4735030425774 247.59343964319964 L 429.3703175680978 248.12358747078824 L 429.2688704260103 248.64481993821954 L 429.16899082896475 249.15691770957068 L 429.07091700899736 249.65982917638928 L 428.97450754983083 250.1543069619399 L 428.87979726162587 250.64004571621237 L 428.78685576470343 251.11687771173627 L 428.69569665678256 251.58490616541644 L 428.6060240514986 252.04563202307776 L 428.5177563625378 252.49886175302362 L 428.43089195817385 252.94422549467822 L 428.34556192041754 253.38180496142462 L 428.2613332978972 253.81367739347314 L 428.1783126967294 254.23932670629944 L 428.0966583943629 254.6582239132661 L 428.0164476258414 255.07013677633728 L 427.93745140557763 255.47615767442264 L 427.85950656094394 255.875817830746 L 427.78288559022843 256.2686828741661 L 427.70763690131054 256.6547011962304 L 427.6334760299096 257.0353457881854 L 427.5604568229927 257.4102080831161 L 427.48869458921666 257.77884940917676 L 427.41808272246476 258.1412095565062 L 427.3483101069272 258.498924943117 L 427.2795371956878 258.85158055103744 L 427.2119026854798 259.198634491517 L 427.1454653184493 259.5399082853244 L 427.0798242338411 259.87656742334366 L 427.0151692558121 260.20808721964175 L 426.9516401689131 260.5340354534296 L 426.8892777663011 260.85433041132416 L 426.827712733929 261.17042358105 L 426.7669624768771 261.48187844111374 L 426.70723476829113 261.78821116227374 L 426.6485834551382 262.089258317764 L 426.5907262487726 262.3864154861524 L 426.5337289621542 262.67923324383224 L 426.4775790853815 262.96721270909677 L 426.42238322457115 263.2502098083496 L 426.3678465811761 263.52983730572925 L 426.3140436706962 263.80570168678577 L 426.26110666295983 264.0772761152341 L 426.2090921244779 264.34435200691223 L 426.1577324521411 264.6081163562261 L 426.10701078477797 264.868164896965 L 426.0571240173592 265.1240051984787 L 426.0081047844101 265.3755598480885 L 425.9596060721429 265.6246458933904 L 425.9116115632948 265.87089992486517 L 425.86426049850803 266.113683287914 L 425.8176480618152 266.35273148921823 L 425.7715197039175 266.58926592881863 L 425.72597115275624 266.82280707817813 L 425.6811372977037 267.05278294361557 L 425.63707960044945 267.278937633221 L 425.5936158515595 267.5021570920944 L 425.5507852124644 267.72206500860364 L 425.5086235811422 267.93822701160724 L 425.4672201586294 268.1505377338483 L 425.4262545826671 268.36059058629553 L 425.3857910344889 268.56804796365594 L 425.3459578765618 268.77232281978314 L 425.306819834028 268.97314636065414 L 425.2681468334827 269.1716905282094 L 425.23001121479075 269.36753170306866" stroke-linejoin="bevel" stroke-miterlimit="10" stroke-width="2"/></g></g></g><g clip-path="url(#mQZnseQmQAST)"><g><g><path fill="none" stroke="none"/><path fill="none" stroke="#464646" paint-order="fill stroke markers" d=" M 420.58186650014187 292.90372986059924 L 420.58186650014187 292.90372986059924 L 420.58186650014187 292.90372986059924 L 420.58186650014187 292.90372986059924 L 420.58186650014187 292.90372986059924 L 420.58186650014187 292.90372986059924 L 420.58186650014187 292.90372986059924 L 420.58186650014187 292.90372986059924 L 420.58186650014187 292.90372986059924 L 420.58186650014187 292.90372986059924 L 420.58186650014187 292.90372986059924 L 420.58186650014187 292.90372986059924 L 420.58186650014187 292.90372986059924 L 420.58186650014187 292.90372986059924 L 420.58186650014187 292.90372986059924 L 420.58186650014187 292.90372986059924 L 420.58186650014187 292.90372986059924 L 420.58186650014187 292.90372986059924 L 420.58186650014187 292.90372986059924 L 420.58186650014187 292.90372986059924 L 420.58186650014187 292.90372986059924 L 420.58186650014187 292.90372986059924 L 420.58186650014187 292.90372986059924 L 420.58186650014187 292.90372986059924 L 420.58186650014187 292.90372986059924 L 420.58186650014187 292.90372986059924 L 420.58186650014187 292.90372986059924 L 420.58186650014187 292.90372986059924 L 420.58186650014187 292.90372986059924 L 420.58186650014187 292.90372986059924 L 420.58186650014187 292.90372986059924 L 420.58186650014187 292.90372986059924 L 420.58186650014187 292.90372986059924 L 420.58186650014187 292.90372986059924 L 420.58186650014187 292.90372986059924 L 420.58186650014187 292.90372986059924 L 420.58186650014187 292.90372986059924 L 420.58186650014187 292.90372986059924 L 420.58186650014187 292.90372986059924 L 420.58186650014187 292.90372986059924 L 420.58186650014187 292.90372986059924 L 420.58186650014187 292.90372986059924 L 420.58186650014187 292.90372986059924 L 420.58186650014187 292.90372986059924 L 420.58186650014187 292.90372986059924 L 420.58186650014187 292.90372986059924 L 420.58186650014187 292.90372986059924 L 420.58186650014187 292.90372986059924 L 420.58186650014187 292.90372986059924 L 420.58186650014187 292.90372986059924 L 420.58186650014187 292.90372986059924 L 420.58186650014187 292.90372986059924 L 420.58186650014187 292.90372986059924 L 420.58186650014187 292.90372986059924 L 420.58186650014187 292.90372986059924 L 420.58186650014187 292.90372986059924 L 420.58186650014187 292.90372986059924 L 420.58186650014187 292.90372986059924 L 420.58186650014187 292.90372986059924 L 420.58186650014187 292.90372986059924 L 420.58186650014187 292.90372986059924 L 420.58186650014187 292.90372986059924 L 420.58186650014187 292.90372986059924 L 420.58186650014187 292.90372986059924 L 420.58186650014187 292.90372986059924 L 420.58186650014187 292.90372986059924 L 420.58186650014187 292.90372986059924 L 420.58186650014187 292.90372986059924 L 420.58186650014187 292.90372986059924 L 420.58186650014187 292.90372986059924 L 420.58186650014187 292.90372986059924 L 420.58186650014187 292.90372986059924 L 420.58186650014187 292.90372986059924 L 420.58186650014187 292.90372986059924 L 420.58186650014187 292.90372986059924 L 420.58186650014187 292.90372986059924 L 420.58186650014187 292.90372986059924 L 420.58186650014187 292.90372986059924 L 420.58186650014187 292.90372986059924 L 420.58186650014187 292.90372986059924 L 420.58186650014187 292.90372986059924 L 420.58186650014187 292.90372986059924 L 420.58186650014187 292.90372986059924 L 420.58186650014187 292.90372986059924 L 420.58186650014187 292.90372986059924 L 420.58186650014187 292.90372986059924 L 420.58186650014187 292.90372986059924 L 420.58186650014187 292.90372986059924 L 420.58186650014187 292.90372986059924 L 420.58186650014187 292.90372986059924 L 420.58186650014187 292.90372986059924 L 420.58186650014187 292.90372986059924 L 420.58186650014187 292.90372986059924 L 420.58186650014187 292.90372986059924 L 420.58186650014187 292.90372986059924 L 420.58186650014187 292.90372986059924 L 420.58186650014187 292.90372986059924 L 420.58186650014187 292.90372986059924 L 420.58186650014187 292.90372986059924 L 420.58186650014187 292.90372986059924 L 420.58186650014187 292.90372986059924 L 420.58186650014187 292.90372986059924 L 420.58186650014187 292.90372986059924 L 420.58186650014187 292.90372986059924 L 420.58186650014187 292.90372986059924 L 420.58186650014187 292.90372986059924 L 420.58186650014187 292.90372986059924 L 420.58186650014187 292.90372986059924 L 420.58186650014187 292.90372986059924 L 420.58186650014187 292.90372986059924 L 420.58186650014187 292.90372986059924 L 420.58186650014187 292.90372986059924 L 420.58186650014187 292.90372986059924 L 420.58186650014187 292.90372986059924 L 420.58186650014187 292.90372986059924 L 420.58186650014187 292.90372986059924 L 420.58186650014187 292.90372986059924 L 420.58186650014187 292.90372986059924 L 420.58186650014187 292.90372986059924 L 420.58186650014187 292.90372986059924 L 420.58186650014187 292.90372986059924 L 420.58186650014187 292.90372986059924 L 420.58186650014187 292.90372986059924 L 420.58186650014187 292.90372986059924 L 420.58186650014187 292.90372986059924 L 420.58186650014187 292.90372986059924 L 420.58186650014187 292.90372986059924 L 420.58186650014187 292.90372986059924 L 420.58186650014187 292.90372986059924 L 420.58186650014187 292.90372986059924 L 420.58186650014187 292.90372986059924 L 420.58186650014187 292.90372986059924 L 420.58186650014187 292.90372986059924 L 420.58186650014187 292.90372986059924 L 420.58186650014187 292.90372986059924 L 420.58186650014187 292.90372986059924 L 420.58186650014187 292.90372986059924 L 420.58186650014187 292.90372986059924 L 420.58186650014187 292.90372986059924 L 420.58186650014187 292.90372986059924 L 420.58186650014187 292.90372986059924 L 420.58186650014187 292.90372986059924 L 420.58186650014187 292.90372986059924 L 420.58186650014187 292.90372986059924 L 420.58186650014187 292.90372986059924 L 420.58186650014187 292.90372986059924 L 420.58186650014187 292.90372986059924 L 420.58186650014187 292.90372986059924 L 420.58186650014187 292.90372986059924 L 420.58186650014187 292.90372986059924 L 420.58186650014187 292.90372986059924 L 420.58186650014187 292.90372986059924 L 420.58186650014187 292.90372986059924 L 420.58186650014187 292.90372986059924 L 420.58186650014187 292.90372986059924 L 420.58186650014187 292.90372986059924 L 420.58186650014187 292.90372986059924 L 420.58186650014187 292.90372986059924 L 420.58186650014187 292.90372986059924 L 420.58186650014187 292.90372986059924 L 420.58186650014187 292.90372986059924 L 420.58186650014187 292.90372986059924 L 420.58186650014187 292.90372986059924 L 420.58186650014187 292.90372986059924 L 420.58186650014187 292.90372986059924 L 420.58186650014187 292.90372986059924 L 420.58186650014187 292.90372986059924 L 420.58186650014187 292.90372986059924 L 420.58186650014187 292.90372986059924 L 420.58186650014187 292.90372986059924 L 420.58186650014187 292.90372986059924 L 420.58186650014187 292.90372986059924 L 420.58186650014187 292.90372986059924 L 420.58186650014187 292.90372986059924 L 420.58186650014187 292.90372986059924 L 420.58186650014187 292.90372986059924 L 420.58186650014187 292.90372986059924 L 420.58186650014187 292.90372986059924 L 420.58186650014187 292.90372986059924 L 420.58186650014187 292.90372986059924 L 420.58186650014187 292.90372986059924 L 420.58186650014187 292.90372986059924 L 420.58186650014187 292.90372986059924 L 420.58186650014187 292.90372986059924 L 420.58186650014187 292.90372986059924 L 420.58186650014187 292.90372986059924 L 420.58186650014187 292.90372986059924 L 420.58186650014187 292.90372986059924 L 420.58186650014187 292.90372986059924 L 420.58186650014187 292.90372986059924 L 420.58186650014187 292.90372986059924 L 420.58186650014187 292.90372986059924 L 420.58186650014187 292.90372986059924 L 420.58186650014187 292.90372986059924 L 420.58186650014187 292.90372986059924 L 420.58186650014187 292.90372986059924 L 420.58186650014187 292.90372986059924 L 420.58186650014187 292.90372986059924 L 420.58186650014187 292.90372986059924 L 420.58186650014187 292.90372986059924 L 420.58186650014187 292.90372986059924 L 420.58186650014187 292.90372986059924 L 420.58186650014187 292.90372986059924 L 420.58186650014187 292.90372986059924 L 420.58186650014187 292.90372986059924 L 420.58186650014187 292.90372986059924 L 420.58186650014187 292.101415652925 L 420.58186650014187 291.2991014452508 L 421.13134226674566 290.49678717037807 L 421.13134226674566 290.49678717037807 L 421.13134226674566 290.49678717037807 L 421.13134226674566 291.2991014452508 L 421.6808180333494 293.70604400107493 L 421.6808180333494 296.9153005629778 L 422.2302937659589 299.32224298440497 L 422.7797695665569 299.32224298440497 L 422.7797695665569 296.9153005629778 L 423.329245367155 289.6944732986964 L 423.87872103177585 277.6597606539726 L 424.42819669639675 260.81116424157074 L 425.5271480256385 241.5556248701536 L 426.0766231463506 222.30008549873645 L 426.6260988109714 205.45148693598236 L 427.7250495963044 195.8237150999216 L 428.2745252609253 195.02140149703393 L 429.37347659016706 197.42834230569693 L 429.9229522547879 198.2306559085846 L 428.82400092554616 190.20751987970795 L 427.7250495963044 182.98668885231018 L 427.7250495963044 182.98668885231018 L 427.7250495963044 182.98668885231018 L 427.7250495963044 182.98668885231018 L 427.7250495963044 182.98668885231018 L 427.7250495963044 182.98668885231018 L 427.7250495963044 182.98668885231018 L 427.7250495963044 182.98668885231018 L 427.7250495963044 182.98668885231018 L 427.7250495963044 182.98668885231018 L 427.7250495963044 182.98668885231018 L 427.7250495963044 182.98668885231018 L 427.7250495963044 182.98668885231018 L 427.7250495963044 182.98668885231018 L 427.7250495963044 182.98668885231018 L 427.7250495963044 182.98668885231018 L 427.7250495963044 182.98668885231018 L 427.7250495963044 182.98668885231018 L 427.7250495963044 182.98668885231018 L 427.7250495963044 182.98668885231018 L 427.7250495963044 182.98668885231018 L 427.7250495963044 182.98668885231018 L 427.7250495963044 182.98668885231018 L 427.7250495963044 182.98668885231018 L 427.7250495963044 182.98668885231018 L 427.7250495963044 182.98668885231018 L 427.7250495963044 182.98668885231018 L 427.7250495963044 182.98668885231018 L 427.7250495963044 182.98668885231018 L 427.7250495963044 182.98668885231018 L 427.7250495963044 182.98668885231018 L 427.7250495963044 182.98668885231018 L 427.7250495963044 182.98668885231018 L 427.7250495963044 182.98668885231018 L 427.7250495963044 182.98668885231018 L 427.7250495963044 182.98668885231018 L 427.7250495963044 182.98668885231018 L 427.7250495963044 182.98668885231018 L 427.7250495963044 182.98668885231018 L 427.7250495963044 182.98668885231018 L 427.7250495963044 182.98668885231018 L 427.7250495963044 182.98668885231018 L 427.7250495963044 182.98668885231018 L 427.7250495963044 182.98668885231018 L 427.7250495963044 182.98668885231018 L 427.7250495963044 182.98668885231018 L 427.7250495963044 182.98668885231018 L 427.7250495963044 182.98668885231018 L 427.7250495963044 182.98668885231018 L 427.7250495963044 182.98668885231018 L 427.7250495963044 182.98668885231018 L 427.7250495963044 182.98668885231018 L 427.7250495963044 182.98668885231018 L 427.7250495963044 182.98668885231018 L 427.7250495963044 182.98668885231018 L 427.7250495963044 182.98668885231018 L 427.7250495963044 182.98668885231018 L 427.7250495963044 182.98668885231018 L 427.7250495963044 182.98668885231018 L 427.7250495963044 182.98668885231018 L 427.7250495963044 182.98668885231018 L 427.7250495963044 182.98668885231018 L 427.7250495963044 182.98668885231018 L 427.7250495963044 182.98668885231018 L 427.7250495963044 182.98668885231018 L 427.7250495963044 182.98668885231018 L 427.7250495963044 182.98668885231018 L 427.7250495963044 182.98668885231018 L 427.7250495963044 182.98668885231018 L 427.7250495963044 182.98668885231018 L 427.7250495963044 182.98668885231018 L 427.7250495963044 182.98668885231018 L 427.7250495963044 182.98668885231018 L 427.7250495963044 182.98668885231018 L 427.7250495963044 182.98668885231018 L 427.7250495963044 182.98668885231018 L 427.7250495963044 182.98668885231018 L 427.7250495963044 182.98668885231018 L 427.7250495963044 182.98668885231018 L 427.7250495963044 182.98668885231018 L 427.7250495963044 182.98668885231018 L 427.7250495963044 182.98668885231018 L 427.7250495963044 182.98668885231018 L 427.7250495963044 182.98668885231018 L 427.7250495963044 182.98668885231018 L 427.7250495963044 182.98668885231018 L 427.7250495963044 182.98668885231018 L 427.7250495963044 182.98668885231018 L 427.7250495963044 182.98668885231018 L 427.7250495963044 182.98668885231018 L 427.7250495963044 182.98668885231018 L 427.7250495963044 182.98668885231018 L 427.7250495963044 182.98668885231018 L 427.7250495963044 182.98668885231018 L 427.7250495963044 182.98668885231018 L 427.7250495963044 182.98668885231018 L 427.7250495963044 182.98668885231018 L 427.7250495963044 182.98668885231018 L 427.7250495963044 182.98668885231018 L 427.7250495963044 182.98668885231018 L 427.7250495963044 182.98668885231018 L 427.7250495963044 182.98668885231018 L 427.7250495963044 182.98668885231018 L 427.7250495963044 182.98668885231018 L 427.7250495963044 182.98668885231018 L 427.7250495963044 182.98668885231018 L 427.7250495963044 182.98668885231018 L 427.7250495963044 182.98668885231018 L 427.7250495963044 182.98668885231018 L 427.7250495963044 182.98668885231018 L 427.7250495963044 182.98668885231018 L 427.7250495963044 182.98668885231018 L 427.7250495963044 182.98668885231018 L 427.7250495963044 182.98668885231018 L 427.7250495963044 182.98668885231018 L 427.7250495963044 182.98668885231018 L 427.7250495963044 182.98668885231018 L 427.7250495963044 182.98668885231018" stroke-linejoin="bevel" stroke-miterlimit="10" stroke-width="2"/></g></g></g><g clip-path="url(#nRPvstWXOBXK)"><g><g><path fill="none" stroke="none"/><path fill="none" stroke="#2877a2" paint-order="fill stroke markers" d=" M 421.1313422635627 292.90372986059924 L 421.1313422635627 292.90372986059924 L 420.58186650014187 292.90372986059924 L 421.1313422635627 292.90372986059924 L 421.1313422635627 292.90372986059924 L 421.1313422635627 292.90372986059924 L 421.1313422635627 292.90372986059924 L 421.1313422635627 292.90372986059924 L 421.1313422635627 292.90372986059924 L 420.58186650014187 292.90372986059924 L 421.1313422635627 292.90372986059924 L 421.1313422635627 292.90372986059924 L 421.1313422635627 292.90372986059924 L 421.1313422635627 292.90372986059924 L 421.1313422635627 292.90372986059924 L 421.1313422635627 292.90372986059924 L 421.1313422635627 292.90372986059924 L 421.1313422635627 292.90372986059924 L 421.1313422635627 292.90372986059924 L 421.1313422635627 292.90372986059924 L 421.1313422635627 292.90372986059924 L 421.1313422635627 292.90372986059924 L 421.1313422635627 292.90372986059924 L 421.1313422635627 292.90372986059924 L 421.6808180269836 292.90372986059924 L 421.1313422635627 292.90372986059924 L 421.1313422635627 292.90372986059924 L 421.1313422635627 292.90372986059924 L 421.13134226460556 293.7060439808591 L 421.1313422635627 292.90372986059924 L 421.1313422635627 292.90372986059924 L 421.1313422635627 292.90372986059924 L 421.1313422635627 292.90372986059924 L 421.6808180269836 292.90372986059924 L 420.58186650014187 292.90372986059924 L 421.1313422635627 292.90372986059924 L 421.1313422635627 292.90372986059924 L 421.1313422635627 292.90372986059924 L 420.58186650014187 292.90372986059924 L 420.58186650014187 292.90372986059924 L 421.1313422635627 292.90372986059924 L 421.1313422635627 292.90372986059924 L 421.1313422635627 292.90372986059924 L 421.1313422635627 292.90372986059924 L 421.1313422635627 292.90372986059924 L 420.58186650014187 292.90372986059924 L 421.1313422635627 292.90372986059924 L 421.1313422635627 292.90372986059924 L 421.1313422635627 292.90372986059924 L 421.1313422635627 292.90372986059924 L 421.1313422635627 292.90372986059924 L 421.1313422625199 292.10141566378525 L 421.6808180207266 290.49678734671147 L 422.77976959176306 298.51992890656254 L 424.4281967520661 280.86901734219634 L 427.1755743696524 207.85842844325325 L 430.47242808789235 198.23065848977404 L 428.27452524029576 182.98668946481337 L 428.27452524029576 182.98668946481337 L 428.27452524029576 182.98668946481337 L 428.27452524029576 182.98668946481337 L 428.27452522569604 182.1843752424813 L 428.27452524029576 182.98668946481337 L 428.27452524029576 182.98668946481337 L 428.27452524029576 182.98668946481337 L 428.27452522569604 182.1843752424813 L 428.8240008364668 182.1843752424813 L 428.8240008364668 182.1843752424813 L 428.27452522569604 182.1843752424813 L 428.27452524029576 182.98668946481337 L 428.27452524029576 182.98668946481337 L 428.82400085210935 182.98668946481337 L 428.82400085210935 182.98668946481337 L 428.27452522569604 182.1843752424813 L 428.27452524029576 182.98668946481337 L 428.27452522569604 182.1843752424813 L 428.8240008364668 182.1843752424813 L 428.27452524029576 182.98668946481337 L 428.27452522569604 182.1843752424813 L 428.27452524029576 182.98668946481337 L 428.27452524029576 182.98668946481337 L 428.82400085210935 182.98668946481337 L 428.8240008364668 182.1843752424813 L 428.27452522569604 182.1843752424813 L 428.82400085210935 182.98668946481337 L 428.82400085210935 182.98668946481337" stroke-linejoin="bevel" stroke-miterlimit="10" stroke-width="2"/></g></g></g><g clip-path="url(#nOuLgxyPfDKx)"><g><g><path fill="none" stroke="none"/><path fill="none" stroke="#e58C33" paint-order="fill stroke markers" d=" M 423.6987942378115 292.6041304811802 A 3 3 0 1 1 423.69879273781163 292.60113048168023" stroke-linejoin="bevel" stroke-miterlimit="10" stroke-width="2"/></g></g></g><g><g fill="#444444"><path fill="none" stroke="black" paint-order="fill stroke markers" d=" M 42 474 L 810 474" stroke-linejoin="bevel" stroke-miterlimit="10"/><path fill="none" stroke="black" paint-order="fill stroke markers" d=" M 129 480 L 129 472" stroke-linejoin="bevel" stroke-miterlimit="10"/><path fill="none" stroke="black" paint-order="fill stroke markers" d=" M 275 480 L 275 472" stroke-linejoin="bevel" stroke-miterlimit="10"/><path fill="none" stroke="black" paint-order="fill stroke markers" d=" M 421 480 L 421 472" stroke-linejoin="bevel" stroke-miterlimit="10"/><path fill="none" stroke="black" paint-order="fill stroke markers" d=" M 567 480 L 567 472" stroke-linejoin="bevel" stroke-miterlimit="10"/><path fill="none" stroke="black" paint-order="fill stroke markers" d=" M 713 480 L 713 472" stroke-linejoin="bevel" stroke-miterlimit="10"/><path fill="none" stroke="black" paint-order="fill stroke markers" d=" M 99 478 L 99 474" stroke-linejoin="bevel" stroke-miterlimit="10"/><path fill="none" stroke="black" paint-order="fill stroke markers" d=" M 70 478 L 70 474" stroke-linejoin="bevel" stroke-miterlimit="10"/><path fill="none" stroke="black" paint-order="fill stroke markers" d=" M 129 478 L 129 474" stroke-linejoin="bevel" stroke-miterlimit="10"/><path fill="none" stroke="black" paint-order="fill stroke markers" d=" M 158 478 L 158 474" stroke-linejoin="bevel" stroke-miterlimit="10"/><path fill="none" stroke="black" paint-order="fill stroke markers" d=" M 187 478 L 187 474" stroke-linejoin="bevel" stroke-miterlimit="10"/><path fill="none" stroke="black" paint-order="fill stroke markers" d=" M 216 478 L 216 474" stroke-linejoin="bevel" stroke-miterlimit="10"/><path fill="none" stroke="black" paint-order="fill stroke markers" d=" M 245 478 L 245 474" stroke-linejoin="bevel" stroke-miterlimit="10"/><path fill="none" stroke="black" paint-order="fill stroke markers" d=" M 275 478 L 275 474" stroke-linejoin="bevel" stroke-miterlimit="10"/><path fill="none" stroke="black" paint-order="fill stroke markers" d=" M 304 478 L 304 474" stroke-linejoin="bevel" stroke-miterlimit="10"/><path fill="none" stroke="black" paint-order="fill stroke markers" d=" M 333 478 L 333 474" stroke-linejoin="bevel" stroke-miterlimit="10"/><path fill="none" stroke="black" paint-order="fill stroke markers" d=" M 362 478 L 362 474" stroke-linejoin="bevel" stroke-miterlimit="10"/><path fill="none" stroke="black" paint-order="fill stroke markers" d=" M 391 478 L 391 474" stroke-linejoin="bevel" stroke-miterlimit="10"/><path fill="none" stroke="black" paint-order="fill stroke markers" d=" M 421 478 L 421 474" stroke-linejoin="bevel" stroke-miterlimit="10"/><path fill="none" stroke="black" paint-order="fill stroke markers" d=" M 450 478 L 450 474" stroke-linejoin="bevel" stroke-miterlimit="10"/><path fill="none" stroke="black" paint-order="fill stroke markers" d=" M 479 478 L 479 474" stroke-linejoin="bevel" stroke-miterlimit="10"/><path fill="none" stroke="black" paint-order="fill stroke markers" d=" M 508 478 L 508 474" stroke-linejoin="bevel" stroke-miterlimit="10"/><path fill="none" stroke="black" paint-order="fill stroke markers" d=" M 537 478 L 537 474" stroke-linejoin="bevel" stroke-miterlimit="10"/><path fill="none" stroke="black" paint-order="fill stroke markers" d=" M 567 478 L 567 474" stroke-linejoin="bevel" stroke-miterlimit="10"/><path fill="none" stroke="black" paint-order="fill stroke markers" d=" M 596 478 L 596 474" stroke-linejoin="bevel" stroke-miterlimit="10"/><path fill="none" stroke="black" paint-order="fill stroke markers" d=" M 625 478 L 625 474" stroke-linejoin="bevel" stroke-miterlimit="10"/><path fill="none" stroke="black" paint-order="fill stroke markers" d=" M 654 478 L 654 474" stroke-linejoin="bevel" stroke-miterlimit="10"/><path fill="none" stroke="black" paint-order="fill stroke markers" d=" M 683 478 L 683 474" stroke-linejoin="bevel" stroke-miterlimit="10"/><path fill="none" stroke="black" paint-order="fill stroke markers" d=" M 713 478 L 713 474" stroke-linejoin="bevel" stroke-miterlimit="10"/><path fill="none" stroke="black" paint-order="fill stroke markers" d=" M 742 478 L 742 474" stroke-linejoin="bevel" stroke-miterlimit="10"/><path fill="none" stroke="black" paint-order="fill stroke markers" d=" M 771 478 L 771 474" stroke-linejoin="bevel" stroke-miterlimit="10"/><path fill="" stroke="black" paint-order="fill stroke markers" d=" M 800 478 L 800 474" stroke-linejoin="bevel" stroke-miterlimit="10"/><g transform="translate(129,485) rotate(0,0,0)"><text fill="" stroke="none" font-family="helvetica" font-size="11px" font-style="normal" font-weight="normal" text-decoration="normal" x="0" y="0" text-anchor="middle" dominant-baseline="hanging">-4</text><g transform="rotate(0,0,0) translate(-129,-485) translate(275,485)"><text fill="" stroke="none" font-family="helvetica" font-size="11px" font-style="normal" font-weight="normal" text-decoration="normal" x="0" y="0" text-anchor="middle" dominant-baseline="hanging">-2</text><g transform="rotate(0,0,0) translate(-275,-485) translate(421,485)"><text fill="" stroke="none" font-family="helvetica" font-size="11px" font-style="normal" font-weight="normal" text-decoration="normal" x="0" y="0" text-anchor="middle" dominant-baseline="hanging">0</text><g transform="rotate(0,0,0) translate(-421,-485) translate(567,485)"><text fill="" stroke="none" font-family="helvetica" font-size="11px" font-style="normal" font-weight="normal" text-decoration="normal" x="0" y="0" text-anchor="middle" dominant-baseline="hanging">2</text><g transform="rotate(0,0,0) translate(-567,-485) translate(713,485)"><text fill="" stroke="none" font-family="helvetica" font-size="11px" font-style="normal" font-weight="normal" text-decoration="normal" x="0" y="0" text-anchor="middle" dominant-baseline="hanging">4</text><g transform="rotate(0,0,0) translate(-713,-485) translate(426,503)"><text fill="" stroke="none" font-family="helvetica" font-size="13px" font-style="italic" font-weight="normal" text-decoration="normal" x="0" y="0" text-anchor="middle" dominant-baseline="hanging">[m]</text><g transform="rotate(0,0,0) translate(-426,-503)"/></g></g></g></g></g></g></g></g><g><g fill="#444444"><path fill="none" stroke="black" paint-order="fill stroke markers" d=" M 42 474 L 42 5" stroke-linejoin="bevel" stroke-miterlimit="10"/><path fill="none" stroke="black" paint-order="fill stroke markers" d=" M 36 437 L 44 437" stroke-linejoin="bevel" stroke-miterlimit="10"/><path fill="none" stroke="black" paint-order="fill stroke markers" d=" M 36 365 L 44 365" stroke-linejoin="bevel" stroke-miterlimit="10"/><path fill="none" stroke="black" paint-order="fill stroke markers" d=" M 36 293 L 44 293" stroke-linejoin="bevel" stroke-miterlimit="10"/><path fill="none" stroke="black" paint-order="fill stroke markers" d=" M 36 221 L 44 221" stroke-linejoin="bevel" stroke-miterlimit="10"/><path fill="none" stroke="black" paint-order="fill stroke markers" d=" M 36 149 L 44 149" stroke-linejoin="bevel" stroke-miterlimit="10"/><path fill="none" stroke="black" paint-order="fill stroke markers" d=" M 36 76 L 44 76" stroke-linejoin="bevel" stroke-miterlimit="10"/><path fill="none" stroke="black" paint-order="fill stroke markers" d=" M 38 452 L 42 452" stroke-linejoin="bevel" stroke-miterlimit="10"/><path fill="none" stroke="black" paint-order="fill stroke markers" d=" M 38 466 L 42 466" stroke-linejoin="bevel" stroke-miterlimit="10"/><path fill="none" stroke="black" paint-order="fill stroke markers" d=" M 38 437 L 42 437" stroke-linejoin="bevel" stroke-miterlimit="10"/><path fill="none" stroke="black" paint-order="fill stroke markers" d=" M 38 423 L 42 423" stroke-linejoin="bevel" stroke-miterlimit="10"/><path fill="none" stroke="black" paint-order="fill stroke markers" d=" M 38 408 L 42 408" stroke-linejoin="bevel" stroke-miterlimit="10"/><path fill="none" stroke="black" paint-order="fill stroke markers" d=" M 38 394 L 42 394" stroke-linejoin="bevel" stroke-miterlimit="10"/><path fill="none" stroke="black" paint-order="fill stroke markers" d=" M 38 379 L 42 379" stroke-linejoin="bevel" stroke-miterlimit="10"/><path fill="none" stroke="black" paint-order="fill stroke markers" d=" M 38 365 L 42 365" stroke-linejoin="bevel" stroke-miterlimit="10"/><path fill="none" stroke="black" paint-order="fill stroke markers" d=" M 38 351 L 42 351" stroke-linejoin="bevel" stroke-miterlimit="10"/><path fill="none" stroke="black" paint-order="fill stroke markers" d=" M 38 336 L 42 336" stroke-linejoin="bevel" stroke-miterlimit="10"/><path fill="none" stroke="black" paint-order="fill stroke markers" d=" M 38 322 L 42 322" stroke-linejoin="bevel" stroke-miterlimit="10"/><path fill="none" stroke="black" paint-order="fill stroke markers" d=" M 38 307 L 42 307" stroke-linejoin="bevel" stroke-miterlimit="10"/><path fill="none" stroke="black" paint-order="fill stroke markers" d=" M 38 293 L 42 293" stroke-linejoin="bevel" stroke-miterlimit="10"/><path fill="none" stroke="black" paint-order="fill stroke markers" d=" M 38 278 L 42 278" stroke-linejoin="bevel" stroke-miterlimit="10"/><path fill="none" stroke="black" paint-order="fill stroke markers" d=" M 38 264 L 42 264" stroke-linejoin="bevel" stroke-miterlimit="10"/><path fill="none" stroke="black" paint-order="fill stroke markers" d=" M 38 250 L 42 250" stroke-linejoin="bevel" stroke-miterlimit="10"/><path fill="none" stroke="black" paint-order="fill stroke markers" d=" M 38 235 L 42 235" stroke-linejoin="bevel" stroke-miterlimit="10"/><path fill="none" stroke="black" paint-order="fill stroke markers" d=" M 38 221 L 42 221" stroke-linejoin="bevel" stroke-miterlimit="10"/><path fill="none" stroke="black" paint-order="fill stroke markers" d=" M 38 206 L 42 206" stroke-linejoin="bevel" stroke-miterlimit="10"/><path fill="none" stroke="black" paint-order="fill stroke markers" d=" M 38 192 L 42 192" stroke-linejoin="bevel" stroke-miterlimit="10"/><path fill="none" stroke="black" paint-order="fill stroke markers" d=" M 38 177 L 42 177" stroke-linejoin="bevel" stroke-miterlimit="10"/><path fill="none" stroke="black" paint-order="fill stroke markers" d=" M 38 163 L 42 163" stroke-linejoin="bevel" stroke-miterlimit="10"/><path fill="none" stroke="black" paint-order="fill stroke markers" d=" M 38 149 L 42 149" stroke-linejoin="bevel" stroke-miterlimit="10"/><path fill="none" stroke="black" paint-order="fill stroke markers" d=" M 38 134 L 42 134" stroke-linejoin="bevel" stroke-miterlimit="10"/><path fill="none" stroke="black" paint-order="fill stroke markers" d=" M 38 120 L 42 120" stroke-linejoin="bevel" stroke-miterlimit="10"/><path fill="none" stroke="black" paint-order="fill stroke markers" d=" M 38 105 L 42 105" stroke-linejoin="bevel" stroke-miterlimit="10"/><path fill="none" stroke="black" paint-order="fill stroke markers" d=" M 38 91 L 42 91" stroke-linejoin="bevel" stroke-miterlimit="10"/><path fill="none" stroke="black" paint-order="fill stroke markers" d=" M 38 76 L 42 76" stroke-linejoin="bevel" stroke-miterlimit="10"/><path fill="none" stroke="black" paint-order="fill stroke markers" d=" M 38 62 L 42 62" stroke-linejoin="bevel" stroke-miterlimit="10"/><path fill="none" stroke="black" paint-order="fill stroke markers" d=" M 38 48 L 42 48" stroke-linejoin="bevel" stroke-miterlimit="10"/><path fill="none" stroke="black" paint-order="fill stroke markers" d=" M 38 33 L 42 33" stroke-linejoin="bevel" stroke-miterlimit="10"/><path fill="" stroke="black" paint-order="fill stroke markers" d=" M 38 19 L 42 19" stroke-linejoin="bevel" stroke-miterlimit="10"/><g transform="translate(31,437) rotate(0,0,0)"><text fill="" stroke="none" font-family="helvetica" font-size="11px" font-style="normal" font-weight="normal" text-decoration="normal" x="0" y="0" text-anchor="end" dominant-baseline="central">-2</text><g transform="rotate(0,0,0) translate(-31,-437) translate(31,365)"><text fill="" stroke="none" font-family="helvetica" font-size="11px" font-style="normal" font-weight="normal" text-decoration="normal" x="0" y="0" text-anchor="end" dominant-baseline="central">-1</text><g transform="rotate(0,0,0) translate(-31,-365) translate(31,293)"><text fill="" stroke="none" font-family="helvetica" font-size="11px" font-style="normal" font-weight="normal" text-decoration="normal" x="0" y="0" text-anchor="end" dominant-baseline="central">0</text><g transform="rotate(0,0,0) translate(-31,-293) translate(31,221)"><text fill="" stroke="none" font-family="helvetica" font-size="11px" font-style="normal" font-weight="normal" text-decoration="normal" x="0" y="0" text-anchor="end" dominant-baseline="central">1</text><g transform="rotate(0,0,0) translate(-31,-221) translate(31,149)"><text fill="" stroke="none" font-family="helvetica" font-size="11px" font-style="normal" font-weight="normal" text-decoration="normal" x="0" y="0" text-anchor="end" dominant-baseline="central">2</text><g transform="rotate(0,0,0) translate(-31,-149) translate(31,76)"><text fill="" stroke="none" font-family="helvetica" font-size="11px" font-style="normal" font-weight="normal" text-decoration="normal" x="0" y="0" text-anchor="end" dominant-baseline="central">3</text><g transform="rotate(0,0,0) translate(-31,-76) translate(15,240) rotate(-90,0,0)"><text fill="" stroke="none" font-family="helvetica" font-size="13px" font-style="italic" font-weight="normal" text-decoration="normal" x="0" y="0" text-anchor="middle" dominant-baseline="alphabetic">[m]</text><g transform="rotate(90,0,0) translate(-15,-240)"/></g></g></g></g></g></g></g></g></g><g clip-path="url(#HZrwlPBfdZiu)"><g><g/><g><path fill="#ffffff" stroke="#e5e5e5" paint-order="fill stroke markers" d=" M 650.9166641235352 15 L 800 15 L 800 147 L 650.9166641235352 147 L 650.9166641235352 15 Z" fill-opacity="0.95" stroke-linejoin="bevel" stroke-miterlimit="10" stroke-opacity="0.5"/><text fill="#444444" stroke="none" font-family="helvetica" font-size="13px" font-style="normal" font-weight="normal" text-decoration="normal" x="685.9166641235352" y="35" text-anchor="start" dominant-baseline="central">Estimated</text><g><path fill="none" stroke="#e0212d" paint-order="fill stroke markers" d=" M 660.9166641235352 35 L 680.9166641235352 35" stroke-linejoin="bevel" stroke-miterlimit="10" stroke-width="2"/></g><text fill="#444444" stroke="none" font-family="helvetica" font-size="13px" font-style="normal" font-weight="normal" text-decoration="normal" x="685.9166641235352" y="58" text-anchor="start" dominant-baseline="central">Setpoint</text><g><path fill="none" stroke="#208900" paint-order="fill stroke markers" d=" M 660.9166641235352 58 L 680.9166641235352 58" stroke-linejoin="bevel" stroke-miterlimit="10" stroke-width="2"/></g><text fill="#444444" stroke="none" font-family="helvetica" font-size="13px" font-style="normal" font-weight="normal" text-decoration="normal" x="685.9166641235352" y="81" text-anchor="start" dominant-baseline="central">Groundtruth</text><g><path fill="none" stroke="#464646" paint-order="fill stroke markers" d=" M 660.9166641235352 81 L 680.9166641235352 81" stroke-linejoin="bevel" stroke-miterlimit="10" stroke-width="2"/></g><text fill="#444444" stroke="none" font-family="helvetica" font-size="13px" font-style="normal" font-weight="normal" text-decoration="normal" x="685.9166641235352" y="104" text-anchor="start" dominant-baseline="central">GPS (projected)</text><g><path fill="none" stroke="#2877a2" paint-order="fill stroke markers" d=" M 660.9166641235352 104 L 680.9166641235352 104" stroke-linejoin="bevel" stroke-miterlimit="10" stroke-width="2"/></g><text fill="#444444" stroke="none" font-family="helvetica" font-size="13px" font-style="normal" font-weight="normal" text-decoration="normal" x="685.9166641235352" y="127" text-anchor="start" dominant-baseline="central">Position Setpoints</text><path fill="none" stroke="#e58C33" paint-order="fill stroke markers" d=" M 674.9166641235352 127 A 4 4 0 1 1 674.9166621235353 126.99600000066667" stroke-linejoin="bevel" stroke-miterlimit="10" stroke-width="2"/></g></g></g><g/></g></svg>