<svg version="1.1" xmlns="http://www.w3.org/2000/svg" xmlns:xlink="http://www.w3.org/1999/xlink" width="840" height="519"><defs><clipPath id="EKQzippIiIta"><path fill="none" stroke="none" d=" M 42 5 L 810 5 L 810 474 L 42 474 L 42 5 Z"/></clipPath><clipPath id="sBUiQCbBRTZE"><path fill="none" stroke="none" d=" M 42 5 L 810 5 L 810 474 L 42 474 L 42 5 Z"/></clipPath><clipPath id="WNAtlQazgtkp"><path fill="none" stroke="none" d=" M 42 5 L 810 5 L 810 474 L 42 474 L 42 5 Z"/></clipPath><clipPath id="PARtSMHsqTTv"><path fill="none" stroke="none" d=" M 42 5 L 810 5 L 810 474 L 42 474 L 42 5 Z"/></clipPath><clipPath id="cTQwzEFELsPO"><path fill="none" stroke="none" d=" M 42 5 L 810 5 L 810 474 L 42 474 L 42 5 Z"/></clipPath><clipPath id="DyFTPMFaEIPm"><path fill="none" stroke="none" d=" M 42 5 L 810 5 L 810 474 L 42 474 L 42 5 Z"/></clipPath><clipPath id="RLvwiMRfufxB"><path fill="none" stroke="none" d=" M 42 5 L 810 5 L 810 474 L 42 474 L 42 5 Z"/></clipPath><clipPath id="HIRgotKAHFNJ"><path fill="none" stroke="none" d=" M 42 5 L 810 5 L 810 474 L 42 474 L 42 5 Z"/></clipPath></defs><g transform="scale(1,1) translate(0.5,0.5)"><rect fill="#ffffff" stroke="none" x="0" y="0" width="840" height="519"/><rect fill="#FFFFFF" stroke="none" x="42" y="5" width="768" height="469"/><rect fill="#ffffff" stroke="none" x="42" y="5" width="768" height="469"/><g><rect fill="none" stroke="#e5e5e5" x="42" y="5" width="768" height="469" stroke-linejoin="bevel" stroke-miterlimit="10"/></g><g clip-path="url(#EKQzippIiIta)"><g><g><path fill="none" stroke="#e5e5e5" paint-order="fill stroke markers" d=" M 131 474 L 131 5" stroke-linejoin="bevel" stroke-miterlimit="10"/><path fill="none" stroke="#e5e5e5" paint-order="fill stroke markers" d=" M 328 474 L 328 5" stroke-linejoin="bevel" stroke-miterlimit="10"/><path fill="none" stroke="#e5e5e5" paint-order="fill stroke markers" d=" M 524 474 L 524 5" stroke-linejoin="bevel" stroke-miterlimit="10"/><path fill="none" stroke="#e5e5e5" paint-order="fill stroke markers" d=" M 720 474 L 720 5" stroke-linejoin="bevel" stroke-miterlimit="10"/></g></g></g><g clip-path="url(#sBUiQCbBRTZE)"><g><g><path fill="none" stroke="#e5e5e5" paint-order="fill stroke markers" d=" M 42 406 L 810 406" stroke-linejoin="bevel" stroke-miterlimit="10"/><path fill="none" stroke="#e5e5e5" paint-order="fill stroke markers" d=" M 42 328 L 810 328" stroke-linejoin="bevel" stroke-miterlimit="10"/><path fill="none" stroke="#e5e5e5" paint-order="fill stroke markers" d=" M 42 250 L 810 250" stroke-linejoin="bevel" stroke-miterlimit="10"/><path fill="none" stroke="#e5e5e5" paint-order="fill stroke markers" d=" M 42 173 L 810 173" stroke-linejoin="bevel" stroke-miterlimit="10"/><path fill="none" stroke="#e5e5e5" paint-order="fill stroke markers" d=" M 42 95 L 810 95" stroke-linejoin="bevel" stroke-miterlimit="10"/><path fill="none" stroke="#e5e5e5" paint-order="fill stroke markers" d=" M 42 18 L 810 18" stroke-linejoin="bevel" stroke-miterlimit="10"/></g></g></g><g clip-path="url(#WNAtlQazgtkp)"><g><g><path fill="none" stroke="none"/><path fill="none" stroke="#e0212d" paint-order="fill stroke markers" d=" M 720.074289434414 328.06523652593364 L 720.0742677227211 328.06533295953636 L 720.0723845451453 328.0659283101355 L 720.0674012828568 328.06794458987434 L 720.0571709162349 328.0691638534248 L 720.042565558145 328.07443310028685 L 720.0288780769798 328.07851526913487 L 720.0123495950332 328.0837024348334 L 719.9991023445484 328.08682573780453 L 719.9791725275128 328.0909984942153 L 719.9604040427689 328.09410571825117 L 719.9384556841351 328.09766440590676 L 719.9203145021764 328.0960033713793 L 719.8937257956527 328.09210216254087 L 719.870430453886 328.08372860671926 L 719.841415874365 328.07599078595877 L 719.8191351411332 328.06864473948315 L 719.7946679104224 328.06184795791705 L 719.7985753707243 328.0554448539327 L 719.8265875709751 328.04397972164924 L 719.8590925727627 328.02948156511627 L 719.9063189587033 328.01530803166065 L 719.9542023705746 328.0023600701319 L 720.0036676442376 327.99382979014234 L 720.0504892990971 327.9903770886309 L 720.0930379055894 327.9915605091079 L 720.1308902710593 327.99461845858656 L 720.1583925210247 328.0018129865893 L 720.1815315146579 328.00879055567685 L 720.1928012482492 328.02013432299606 L 720.2020705922004 328.0312401234282 L 720.2055938451986 328.0413877326912 L 720.2077337106083 328.0516686732418 L 720.2023430086692 328.0614480349127 L 720.1965891670313 328.0725582618794 L 720.1909400327602 328.08225408626015 L 720.1848770411592 328.08988868971903 L 720.1795148741712 328.09311872524745 L 720.1738541412925 328.09048487391925 L 720.1674044380392 328.0815058404332 L 720.1592992597671 328.0671269139367 L 720.1499193954354 328.0533407684597 L 720.1433950050096 328.04170286807874 L 720.1406461395819 328.02905686848027 L 720.1390597580809 328.01960235742416 L 720.1389314422007 328.01616178823105 L 720.1369038200537 328.0209477755172 L 720.1379649007085 328.0244496928664 L 720.1401067266395 328.03080359032896 L 720.144191305631 328.03342217688805 L 720.423983716659 328.04771136033565 L 720.4667189462554 328.050643842401 L 720.5155647866375 328.05400463911684 L 720.5635538838513 328.05392642834806 L 720.60280781286 328.05138007447755 L 720.5998167430969 328.0537478165474 L 720.5961614542554 328.05356763287523 L 720.5955400101838 328.0532704791553 L 720.5866075285502 328.05810016548463 L 720.5321728227846 328.0936972823545 L 720.4833718047599 328.1330329436435 L 720.4388598768725 328.17819815001104 L 720.393595840064 328.22768027553604 L 720.3326527159503 328.2803479973438 L 720.2746298451999 328.3402190640886 L 720.2171785326265 328.4111007833558 L 720.1818885488644 328.44936830151784 L 720.1749952194359 328.39501341959465 L 720.1668415902427 328.3494765920962 L 720.1589962975562 328.31106556387533 L 720.153560270562 328.26940005707297 L 720.1674981683157 328.18444378256737 L 720.1758519717441 328.1081999083324 L 720.1784645101179 328.0423503752377 L 720.1791713671035 327.9754064040454 L 720.1967495733064 327.85902051426467 L 720.2105686058972 327.749240450485 L 720.220265133238 327.64767128318914 L 720.2316591702674 327.59463167827175 L 720.2522678394554 327.68751049214956 L 720.272508131748 327.77646788418645 L 720.2927321366343 327.8647038052846 L 720.31347849016 327.9407957093595 L 720.3309023407404 327.9829358219756 L 720.3495810162501 328.0256102624877 L 720.3692381060583 328.0644818501794 L 720.3651985916332 328.09763336144516 L 720.2712684060305 328.1019183463173 L 720.1890665331666 328.1100169827216 L 720.1168884347246 328.1259422359449 L 720.0739944049152 328.1571706381208 L 720.1055170122379 328.24233429125593 L 720.1295257026459 328.3150739626044 L 720.1570088409576 328.3975726431629 L 720.1937431849725 328.43842055998937 L 720.2678262975855 328.33113861553284 L 720.336053054784 328.23675252145216 L 720.3964237432845 328.15468133573194 L 720.4452476477658 328.0868846784679 L 720.4625675404559 328.0363316793668 L 720.4834653979369 327.99018208171395 L 720.505680579385 327.9513193256363 L 720.4985310112144 327.91048409218655 L 720.3842223005837 327.85093182627105 L 720.2836117191702 327.79446622810667 L 720.1919144346167 327.7378707247022 L 720.1188302052396 327.6821552525128 L 720.0881881315408 327.6301866882958 L 720.0630604234223 327.5798819952019 L 720.0349241413772 327.5243245051293 L 720.0168178603508 327.49502456792425 L 720.0239831035506 327.5313562269959 L 720.0266281710373 327.5584422464672 L 720.0255018584971 327.5711660220855 L 720.0271061086174 327.5812675186018 L 720.0530399439556 327.6256892929987 L 720.0710349811166 327.6528892099156 L 720.0849283287122 327.67297248777135 L 720.1103433902772 327.7063902946165 L 720.1876272455909 327.8026654710606 L 720.2519575744175 327.88522438862475 L 720.3071177918245 327.955080308182 L 720.3485225176336 328.00042748125685 L 720.3722490826515 327.9851953962521 L 720.3960186237553 327.97025264400327 L 720.4190675156756 327.9599637605332 L 720.4386334618157 327.9818487915482 L 720.443392784548 328.1212092451185 L 720.454641551074 328.2449555766461 L 720.4719812591946 328.35534108195526 L 720.484087207607 328.44975295834155 L 720.4781854265975 328.5116377189159 L 720.47730857552 328.5708958280561 L 720.4833220833846 328.6277622353786 L 720.4862052650753 328.6547395969759 L 720.462029562487 328.5876082185039 L 720.4495532629484 328.53708060874055 L 720.4476803026124 328.50186060608274 L 720.4407806574724 328.4617823281185 L 720.3822913197899 328.36679751361396 L 720.3383819893793 328.2947619684155 L 720.3086399422658 328.24074308757037 L 720.2865842713769 328.18233615586666 L 720.2637155828822 328.0558273195089 L 720.2493884965473 327.9501467004836 L 720.2463284932157 327.86141675102186 L 720.238409102884 327.80801610348783 L 720.1907098703202 327.8319887695279 L 720.1542270214089 327.84852350236423 L 720.1226267430028 327.8611944486471 L 720.0993647780803 327.8720587545151 L 720.0823938227358 327.88273801316893 L 720.0714269085436 327.8886800486874 L 720.0687693615857 327.8905673062345 L 720.0791682633336 327.8925641430976 L 720.1185121712368 327.902486373996 L 720.1552692234791 327.9018051032185 L 720.1907299965093 327.8938496268154 L 720.219514084552 327.88896493684126 L 720.227183140555 327.9001792641581 L 720.2383226754346 327.9009059204659 L 720.25237304038 327.89393107505214 L 720.2641437899471 327.88681221369 L 720.2621930302827 327.89832824999223 L 720.2641851208404 327.89714916571245 L 720.2679639088037 327.8855127457364 L 720.2701656882937 327.87924406809884 L 720.2653770994136 327.90311651378187 L 720.2609726264378 327.91809100157366 L 720.2587602994355 327.92699210320785 L 720.2482220550186 327.9437612075011 L 720.2041514683167 328.0078157830705 L 720.1659567325614 328.05850247932585 L 720.1383581200116 328.0969202354276 L 720.12226887249 328.12181337223825 L 720.1220565969494 328.13305499952975 L 720.124238094871 328.1389541428312 L 720.1271966492311 328.1383751069357 L 720.1315660796054 328.1317265513251 L 720.1295590406453 328.13050731205277 L 720.1305518275287 328.1218121888178 L 720.1286088779591 328.10449423036806 L 720.1243891783882 328.0994890754164 L 720.1282956744245 328.1548776570587 L 720.132217159993 328.1984864757904 L 720.1368056934571 328.23140020874854 L 720.1460758371546 328.22999685273777 L 720.1574359877874 328.15058498447036 L 720.1742301317734 328.07350299107594 L 720.20684597384 328.0052615867809 L 720.2746963840991 327.9379844352972 L 720.3640837543112 327.8473881956084 L 720.50129138842 327.7681288169413 L 720.6591011109465 327.700045679326 L 720.8166735601453 327.6779009372019 L 720.953505249473 327.77969869435844 L 721.0764921680862 327.8671773166888 L 721.1854954617326 327.9419297965599 L 721.2601811352627 328.0023720624272 L 721.2555904630482 328.0406975591589 L 721.2406118256177 328.07923472216095 L 721.2174129286952 328.1203213951979 L 721.2115456601698 328.1688270226714 L 721.2835570549051 328.23514115444976 L 721.3251318022259 328.29925186570506 L 721.3380517553596 328.3644424526624 L 721.3425439353792 328.4519825586551 L 721.3819478328302 328.60951949254553 L 721.3846196255561 328.74826508239124 L 721.3564164915681 328.8749806881654 L 721.3289799441958 328.99728573099077 L 721.3733145934443 329.12193015218793 L 721.3712004113186 329.2406112182306 L 721.3322741315492 329.351875797178 L 721.2882130229845 329.46548546382354 L 721.2914900272154 329.59827947851704 L 721.255343976642 329.7263249236925 L 721.1900028506433 329.85025864217397 L 721.1394506896522 329.971411412872 L 721.1993832999324 330.0931456676102 L 721.2226575832342 330.21238212824005 L 721.2109816150388 330.3287585777582 L 721.1952671012538 330.42143163908037 L 721.2540443476352 330.4320983950324 L 721.2728072935641 330.45496937791216 L 721.2555968975792 330.4898497479269 L 721.2313273824548 330.54090225435726 L 721.2657829062678 330.61760293341325 L 721.2663133894705 330.69459153596114 L 721.2415520714487 330.7754633476124 L 721.2033031722982 330.85110801811817 L 721.1771594538036 330.9051032124863 L 721.1282247730229 330.95658688145505 L 721.0596595083143 331.00583596348355 L 720.9358185519604 331.0935540523025 L 720.66839429191 331.31700407393583 L 720.4177101586896 331.5116374636733 L 720.1866760683693 331.6812356745248 L 719.9552536577638 331.8434565685955 L 719.6659606206999 332.03968452257135 L 719.4216535097813 332.2100820391007 L 719.2182427053294 332.35900901989555 L 719.0209403911928 332.5076680237054 L 718.8399809812813 332.64058460823884 L 718.7109845763854 332.75090035497607 L 718.6049838688502 332.8624799586477 L 718.5413609819666 332.9909195641457 L 718.5412058220278 333.1942530998799 L 718.5588640759889 333.37369361106204 L 718.5902407498754 333.5386385041933 L 718.6189340781283 333.7050224366245 L 718.6115315890206 333.91187407366056 L 718.6193744047783 334.10405548843977 L 718.63968573283 334.28455171909224 L 718.6611580549951 334.4386283676431 L 718.6455560723815 334.51894109893954 L 718.6496576471262 334.6040334758337 L 718.6669065771771 334.69544166844213 L 718.7213962323743 334.8011263566046 L 718.8747118737699 334.93465058690106 L 719.0149011452046 335.0694889740191 L 719.1525186516211 335.21858015214667 L 719.2520419069883 335.35463325263123 L 719.3411508009389 335.51660756162295 L 719.4228029509869 335.67534764568745 L 719.4933517695317 335.8388448271244 L 719.5756724527187 336.00451241978357 L 719.7346033922582 336.16160070180706 L 719.8625666345032 336.32357905791616 L 719.9634800501682 336.49182524249085 L 720.0634941898671 336.6565365591347 L 720.2279252960611 336.7965616162246 L 720.3512351659749 336.94660039797316 L 720.442781833149 337.10664596646484 L 720.4970741383581 337.2869300125359 L 720.4934276604367 337.5067931318723 L 720.4693511446803 337.7220460063803 L 720.4285599111788 337.9368398221482 L 720.3876494926159 338.13086787876114 L 720.365933060434 338.2509342875289 L 720.3290711134558 338.3882772621308 L 720.285433148419 338.53876411758665 L 720.2523160801574 338.6918284086388 L 720.2663173086848 338.82044348558213 L 720.2614241038375 338.96441101313667 L 720.2413223550388 339.1156332876321 L 720.233541526481 339.29676144675176 L 720.2928902213599 339.5554080917132 L 720.3243798834159 339.7995371485581 L 720.3309682398426 340.03222095751954 L 720.3265225273731 340.24257392922834 L 720.3415206511955 340.3951641293902 L 720.3315462325506 340.5575911373662 L 720.3059336736156 340.72543318836495 L 720.3284640556792 340.9061369783218 L 720.4516437908611 341.05684931603037 L 720.5463238552351 341.22088476407566 L 720.6059345927298 341.3959249023723 L 720.6303573666816 341.5538757985523 L 720.6628060114838 341.75549046572934 L 720.6649029739275 341.95205317412655 L 720.6426678308097 342.14484743810544 L 720.6368222057065 342.32837264701925 L 720.7434306108155 342.49480977013576 L 720.801113328863 342.66038774805344 L 720.8167950119164 342.82159715186486 L 720.8087883349792 342.98942070175565 L 720.8041351454473 343.1910469321251 L 720.7707832899267 343.38100821395466 L 720.7145653050999 343.56102052500324 L 720.6765087472402 343.74556560749085 L 720.7437078806024 343.965014186378 L 720.7777903478614 344.1728741337954 L 720.7870028412694 344.37358455932315 L 720.416314450437 344.53467601857164 L 718.040204031371 344.5802523415993 L 712.7931928453924 344.6195510074478 L 704.803040953464 344.6439366239981 L 693.9990271574203 344.68074689083215 L 680.4676625555911 344.81318360287906 L 664.2348946863979 344.90059902513576 L 645.4729817921932 344.9514342880881 L 624.33224387463 344.99337398709133 L 601.0378286804093 345.0833217484938 L 575.663632702468 345.1448020864123 L 548.6020640542051 345.18684701046686 L 520.2786534743768 345.2777683926733 L 491.176210726091 345.58398948031714 L 461.8378382971084 345.8556539673348 L 432.71014410965563 346.09858739008075 L 404.11246808381264 346.3448151663547 L 376.2520255135586 346.66142115713467 L 349.56898511053936 346.94890640405754 L 324.2600422956342 347.21680591561466 L 300.44817850348113 347.48822641927165 L 278.1413304354936 347.80435485020365 L 257.6278025142433 348.1079510931621 L 238.92219527534922 348.4069128085881 L 222.00496646344425 348.7540329079151 L 206.80008098149654 349.2632920917261 L 193.32232655147914 349.75157333180084 L 181.4857846368643 350.22737094931034 L 171.16489063132747 350.6996302299313 L 162.17987076039913 351.1695121181852 L 154.56134871160884 351.62619346594226 L 148.19588955437712 352.07692439486635 L 142.9960772613432 352.54528687963284 L 138.88932096439066 353.0842380290079 L 135.70984842833593 353.5988255318983 L 133.3486048832856 354.09659552769455 L 131.7532155873646 354.5709408082328 L 130.93143005563263 355.00756464237224 L 130.61538461538476 355.4225421802519 L 130.72627381154848 355.8165117100949 L 131.1827090173649 356.2342782899927 L 131.91891294800632 356.77741762767187 L 132.87745683003754 357.27401974103105 L 134.00083701548158 357.7308976630597 L 135.25431171701916 358.1618601581773 L 136.62664975340476 358.5962176065973 L 138.0237338258013 358.98880880390067 L 139.41471562305435 359.34442553703724 L 140.82374218484188 359.676471858691 L 142.3484499134579 360.009875699138 L 143.76230588318094 360.30087268760684 L 145.0540789127656 360.5547379524917 L 146.25761229503155 360.757214077506 L 147.45036374330186 360.86632204879214 L 148.47524646922307 360.95634843990325 L 149.34094591962491 361.02660870984636 L 150.1254064923511 361.07878414680323 L 151.01768640503394 361.1154926575437 L 151.70926510886 361.13095033320616 L 152.22020898098788 361.1256497657887 L 152.59652842725313 361.1393613993917 L 152.92983244934828 361.261614407851 L 153.09785092078073 361.32695107045043 L 153.12132408958382 361.3437570143521 L 153.05214001311163 361.3244511082435 L 152.99265218978132 361.2932744287694 L 152.80857312916794 361.22239899698815 L 152.51937021209676 361.1161517595132 L 152.17180258981978 360.96984268548823 L 151.8515267379695 360.7581321949862 L 151.4468298404239 360.5263271886507 L 150.97725415255024 360.2801121318885 L 150.48708796572646 360.0284392482915 L 150.07524054945463 359.8037294168412 L 149.60484124162292 359.55755598757173 L 149.0941968676617 359.2915077431253 L 148.56906426989372 358.9936514688972 L 148.0811068820483 358.6336106583306 L 147.5612529394657 358.2711577658197 L 147.0181130144341 357.9008280266142 L 146.48642889427288 357.53706155544137 L 146.03033062389386 357.20878252188663 L 145.55637477533446 356.85827440717287 L 145.07111287098792 356.4903266856114 L 144.59184092997236 356.10056615781895 L 144.15479823043972 355.6807690813275 L 143.7077972168695 355.25274363709127 L 143.25469392815592 354.8190869181336 L 142.84295882369645 354.37150117755493 L 142.57135142390985 353.89796300784946 L 142.2761585435078 353.4257476673598 L 141.96441838940393 352.9550656061886 L 141.68476197639143 352.4854820482998 L 141.5328415314109 352.0225889535605 L 141.34120014209213 351.5573392802006 L 141.12080692878487 351.09082690622563 L 140.9221647698231 350.62709201107623 L 140.84246082025095 350.17712887813053 L 140.71880551473828 349.7199688142062 L 140.56141922821814 349.25820891232667 L 140.3812710810406 348.7968444716288 L 140.1995505684887 348.34256132998513 L 139.99121215638502 347.8814004014743 L 139.76157193718564 347.41553672259556 L 139.53893248762938 346.97218311045225 L 139.3774281013193 346.602572601817 L 139.19447215883042 346.2112163534669 L 138.9941453226818 345.8042867975299 L 138.80403886146655 345.3705907637179 L 138.6705001164578 344.88240665445977 L 138.50465300673284 344.3545341997676 L 138.34756621837937 343.9090032384867 L 138.16550877039003 343.42064568134185 L 137.96334750797132 342.9315457672419 L 137.7589400093035 342.44504178984624 L 137.5534842670528 341.9581805098039 L 137.342487808721 341.4469763970234 L 137.11281015225086 340.8456545439114 L 136.8942513652138 340.2750190909138 L 136.68950693110867 339.721067011978 L 136.49217507662547 339.16714846630026 L 136.2924846740808 338.57643699857715 L 136.10518600817693 338.0068642029654 L 135.92938058441428 337.45343362400894 L 135.77042193251987 336.89149484805034 L 135.65335558667118 336.27040629561077 L 135.53700054896797 335.6733333375633 L 135.42274199843052 335.0935005212938 L 135.33184430488382 334.5152009843427 L 135.31256411041238 333.69370727465605 L 135.28325072736163 331.73689134332824 L 135.24907049910462 327.64894294527846 L 135.19789374989602 321.1057419297901 L 135.11257420970117 312.266177943595 L 135.0175584163644 301.41080319636995 L 134.91913583138307 289.0477431009067 L 134.80749788980302 275.64824168952936 L 134.66302746171527 261.61917532748953 L 134.53098620753917 247.2440364913585 L 134.4062077839019 232.807658988031 L 134.281953482056 218.50498899160027 L 134.13752049123912 204.41841193560884 L 134.01341593847656 190.96186235797765 L 133.90458579220774 178.25655026720742 L 133.7880061308797 166.34861742643642 L 133.60561174745305 155.19305989066308 L 133.4575847786375 145.0144903605212 L 133.33059755602198 135.82114182903263 L 133.36092174538476 127.5887223415059 L 134.54217995151384 121.3332572412717 L 137.7791935728162 117.94886807161319 L 143.38089496808436 117.65623604773239 L 150.80219747420392 119.8971827438543 L 159.50887123659834 124.12858963604617 L 169.2971826274744 130.24030112778615 L 179.87972571876026 137.9109714757104" stroke-linejoin="bevel" stroke-miterlimit="10" stroke-width="2"/></g></g></g><g clip-path="url(#PARtSMHsqTTv)"><g><g><path fill="none" stroke="none"/><path fill="none" stroke="#208900" paint-order="fill stroke markers" d=" M 720.0900973078207 327.88434088845185 L 720.0963183155975 327.89039671301094 L 720.1024719276039 327.89628248637115 L 720.1085563843977 327.90199661859344 L 720.1145695769337 327.90753695964673 L 720.1205066747435 327.9128989023216 L 720.1263645108315 327.9180796190561 L 720.1321398907822 327.92307632745707 L 720.1378295333503 327.9278860554226 L 720.143430079601 327.9325060386272 L 720.1489381705995 327.93693344950873 L 720.1543504565511 327.941165478573 L 720.159663496261 327.9451994066628 L 720.1648738302551 327.9490325959251 L 720.1699778208299 327.9526623633377 L 720.1749719948009 327.9560861433174 L 720.1798527236045 327.9593015328883 L 720.184616415237 327.96230608390556 L 720.1892593314553 327.9650974114609 L 720.1937777340164 327.9676733113207 L 720.198167893817 327.9700315069815 L 720.202426045194 327.97216986647965 L 720.2065408271791 327.9740829966699 L 720.2105149726195 327.97577260492994 L 720.2143454744693 327.97723753494046 L 720.2180287681442 327.97847637743746 L 720.2215611336812 327.9794878044605 L 720.224938640898 327.9802706054879 L 720.2281569574542 327.9808236784029 L 720.2312122628471 327.9811462824384 L 720.234100471515 327.9812378213673 L 720.2368166661603 327.9810980061099 L 720.2393555638869 327.98072699927354 L 720.241713325912 327.98012520737666 L 720.2438861317329 327.9792928020604 L 720.2458708920436 327.9782294310088 L 720.2476644261385 327.9769338656326 L 720.2492617436002 327.9754054826035 L 720.2506577626115 327.97364368569436 L 720.251847054037 327.9716484929727 L 720.2528243715403 327.96942090718414 L 720.2535850537428 327.9669609102611 L 720.254124475825 327.96426849316987 L 720.2544380129682 327.96134368301176 L 720.2545209672334 327.95830687249423 L 720.2543999359003 327.9553143363566 L 720.2542535503218 327.95240138750444 L 720.2541091024145 327.94952515178835 L 720.2539662083003 327.9466812207411 L 720.2538249410987 327.94386832963863 L 720.2536851728503 327.9410854396003 L 720.2535470315146 327.9383327041997 L 720.2534103342923 327.935610439618 L 720.2532751360234 327.932916568094 L 720.2531411990686 327.9302491654402 L 720.2530086331077 327.92760796967804 L 720.2528773284611 327.9249934957309 L 720.252747212009 327.9224034761291 L 720.2526183203115 327.9198363932035 L 720.252490543689 327.91729219275175 L 720.2523639004213 327.9147707663688 L 720.2522383539487 327.91227026213727 L 720.2521137214718 327.909789198523 L 720.2519900578307 327.90732725031125 L 720.2518675275444 327.9048848691892 L 720.2517457650147 327.90246100724255 L 720.2516249164808 327.9000544358821 L 720.251504945383 327.8976651370404 L 720.251385888281 327.89529439350906 L 720.251267708615 327.89294092249645 L 720.2511503881052 327.89060320633354 L 720.2510337805122 327.8882793660016 L 720.2509176664769 327.88596636616256 L 720.250802119119 327.8836635925218 L 720.2506869739194 327.8813705753247 L 720.2505723039976 327.87908698935644 L 720.250457816875 327.8768045777749 L 720.2503430007139 327.8745130963143 L 720.2502275264757 327.8722093108942 L 720.2501114124404 327.8698920651954 L 720.2499944940888 327.8675588297696 L 720.2498768628203 327.8652116643104 L 720.2497599627486 327.86287864569437 L 720.2496450551879 327.86058506840516 L 720.2495328530549 327.85834488054354 L 720.2494235757088 327.8561631771412 L 720.2493174242285 327.854044059518 L 720.2492153491698 327.8520063359291 L 720.249118374208 327.8500706755811 L 720.2490268832215 327.84824401638934 L 720.2489408762101 327.8465272436608 L 720.248860353174 327.8449193998186 L 720.2487852775533 327.84341974409574 L 720.2487155762283 327.84202715630795 L 720.2486511943592 327.8407405704734 L 720.2485921136663 327.8395596975123 L 720.2485383524291 327.8384843748172 L 720.2484898192486 327.8375135364064 L 720.2484464592844 327.836646224703 L 720.248408290817 327.8358820060872 L 720.2483752590063 327.83522041080437 L 720.2483472541728 327.8346605896826 L 720.2483227590835 327.8341819819202 L 720.248298958631 327.8337130041291 L 720.2482765474523 327.83326511109664 L 720.2482552147887 327.8328423860753 L 720.2482348509608 327.8324409987575 L 720.2482154742484 327.8320538124854 L 720.2481970115317 327.8316846033641 L 720.2481793896914 327.831333461731 L 720.2481626087272 327.8310003153161 L 720.2481466137995 327.83068476663476 L 720.2481313683484 327.83037995004133 L 720.248116854094 327.830088828604 L 720.2481030161965 327.8298117636725 L 720.2480898180961 327.8295486649094 L 720.248077241513 327.82929942390973 L 720.2480652498872 327.829059469599 L 720.2480538249388 327.82882990409394 L 720.248042930108 327.82861128748675 L 720.2480325105552 327.82840347523745 L 720.2480225114404 327.82820621440135 L 720.2480130058833 327.82801605408804 L 720.2480038842045 327.82783462037156 L 720.2479952012437 327.8276620577918 L 720.247986938721 327.8274982760113 L 720.2479790600767 327.8273419561034 L 720.2479715287507 327.8271916888041 L 720.2479643447432 327.8270483232852 L 720.2479574897742 327.82691185954684 L 720.2479509455637 327.8267822795215 L 720.247944693832 327.8266574512455 L 720.247938716299 327.82653798901356 L 720.2479330129647 327.826424127703 L 720.2479275472695 327.8263158492462 L 720.247922355773 327.82621234060633 L 720.2479174019153 327.82611295135376 L 720.2479126674167 327.8260182415806 L 720.2479081522771 327.82592815708443 L 720.2479038382166 327.8258424810554 L 720.2478997069553 327.825759750027 L 720.247895776773 327.8256807409011 L 720.24789201111 327.8256054536778 L 720.2478884099663 327.82553388835703 L 720.2478849733419 327.8254647440797 L 720.2478816281169 327.8253985628704 L 720.2478783377319 327.8253353085942 L 720.2478750473467 327.8252748186437 L 720.2478721408398 327.82521691234405 L 720.2478692526129 327.82516155356024 L 720.2478664192257 327.8251085977523 L 720.2478637503577 327.8250579365154 L 720.2478613008489 327.82500947951206 L 720.24785883306 327.82496311833734 L 720.2478564201109 327.82491872651883 L 720.2478542813606 327.8248762317866 L 720.2478522340098 327.82483550766824 L 720.2478505705374 327.82480417864366 L 131.49351323969825 335.39883297759815 L 131.49351323969825 335.39883297759815 L 131.49351323969825 335.39883297759815 L 131.49351323969825 335.39883297759815 L 131.49351323969825 335.39883297759815 L 131.49351323969825 335.39883297759815 L 131.49351323969825 335.39883297759815 L 131.49351323969825 335.39883297759815 L 131.49351323969825 335.39883297759815 L 131.49351323969825 335.39883297759815 L 131.49351323969825 335.39883297759815 L 131.49351323969825 335.39883297759815 L 131.49351323969825 335.39883297759815 L 131.49351323969825 335.39883297759815 L 131.49351323969825 335.39883297759815 L 131.49351323969825 335.39883297759815 L 131.49351323969825 335.39883297759815 L 131.49351323969825 335.39883297759815 L 131.49351323969825 335.39883297759815 L 131.49351323969825 335.39883297759815 L 131.49351323969825 335.39883297759815 L 131.49351323969825 335.39883297759815 L 131.49351323969825 335.39883297759815 L 131.49351323969825 335.39883297759815 L 131.49351323969825 335.39883297759815 L 131.49351323969825 335.39883297759815 L 131.49351323969825 335.39883297759815 L 131.49351323969825 335.39883297759815 L 131.49351323969825 335.39883297759815 L 131.49351323969825 335.39883297759815 L 131.49351323969825 335.39883297759815 L 131.49351323969825 335.39883297759815 L 131.49351323969825 335.39883297759815 L 131.49351323969825 335.39883297759815 L 131.49351323969825 335.39883297759815 L 131.49351323969825 335.39883297759815 L 131.49351323969825 335.39883297759815 L 131.49351323969825 335.39883297759815 L 131.49351323969825 335.39883297759815 L 131.49351323969825 335.39883297759815 L 131.49351323969825 335.39883297759815 L 131.49351323969825 335.39883297759815 L 131.49351323969825 335.39883297759815 L 131.49351323969825 335.39883297759815 L 131.49351323969825 335.39883297759815 L 131.49351323969825 335.39883297759815 L 131.49351323969825 335.39883297759815 L 131.49351323969825 335.39883297759815 L 131.49351323969825 335.39883297759815 L 131.49351323969825 335.39883297759815 L 131.49351323969825 335.39883297759815 L 131.49351323969825 335.39883297759815 L 131.49351323969825 335.39883297759815 L 131.49351323969825 335.39883297759815 L 131.49351323969825 335.39883297759815 L 131.49351323969825 335.39883297759815 L 131.49351323969825 335.39883297759815 L 131.49351323969825 335.39883297759815 L 131.49351323969825 335.39883297759815 L 131.49351323969825 335.39883297759815 L 131.49351323969825 335.39883297759815 L 131.49351323969825 335.39883297759815 L 131.49351323969825 335.39883297759815 L 131.49351323969825 335.39883297759815 L 131.49351323969825 335.39883297759815 L 131.49351323969825 335.39883297759815 L 131.49351323969825 335.39883297759815 L 131.49351323969825 335.39883297759815 L 131.49351323969825 335.39883297759815 L 131.49351323969825 335.39883297759815 L 131.49351323969825 335.39883297759815 L 131.49351323969825 335.39883297759815 L 131.49351323969825 335.39883297759815 L 131.49351323969825 335.39883297759815 L 131.49351323969825 335.39883297759815 L 131.49351323969825 335.39883297759815 L 131.49351323969825 335.39883297759815 L 131.49351323969825 335.39883297759815 L 131.49351323969825 335.39883297759815 L 131.49351323969825 335.39883297759815 L 131.49351323969825 335.39883297759815 L 131.49351323969825 335.39883297759815 L 131.49351323969825 335.39883297759815 L 131.49351323969825 335.39883297759815 L 131.49351323969825 335.39883297759815 L 131.49351323969825 335.39883297759815 L 131.49351323969825 335.39883297759815 L 131.49351323969825 335.39883297759815 L 131.49351323969825 335.39883297759815 L 131.49351323969825 335.39883297759815 L 131.49351323969825 335.39883297759815 L 131.49351323969825 335.39883297759815 L 131.49351323969825 335.39883297759815 L 131.49351323969825 335.39883297759815 L 131.49351323969825 335.39883297759815 L 131.49351323969825 335.39883297759815 L 131.49351323969825 335.39883297759815 L 131.49351323969825 335.39883297759815 L 131.49351323969825 335.39883297759815 L 131.49351323969825 335.39883297759815 L 131.49351323969825 335.39883297759815 L 131.49351323969825 335.39883297759815 L 131.49351323969825 335.39883297759815 L 131.49351323969825 335.39883297759815 L 131.49351323969825 335.39883297759815 L 131.49351323969825 335.39883297759815 L 131.49351323969825 335.39883297759815 L 131.49351323969825 335.39883297759815 L 131.49351323969825 335.39883297759815 L 131.49351323969825 335.39883297759815 L 131.49351323969825 335.39883297759815 L 131.49351323969825 335.39883297759815 L 131.49351323969825 335.39883297759815 L 131.49351323969825 335.39883297759815 L 131.49351323969825 335.39883297759815 L 131.49351323969825 335.39883297759815 L 131.49351323969825 335.39883297759815 L 131.49351323969825 335.39883297759815 L 131.49351323969825 335.39883297759815 L 131.49351323969825 335.39883297759815 L 131.49351323969825 335.39883297759815 L 131.49351323969825 335.39883297759815 L 131.49403736148975 141.25430668690703 L 131.49403736148975 141.25430668690703 L 131.49403736148975 141.25430668690703 L 131.49403736148975 141.25430668690703 L 131.49403736148975 141.25430668690703 L 131.49403736148975 141.25430668690703 L 131.49403736148975 141.25430668690703 L 131.49403736148975 141.25430668690703 L 131.49403736148975 141.25430668690703 L 131.49403736148975 141.25430668690703 L 131.49403736148975 141.25430668690703 L 131.49403736148975 141.25430668690703 L 131.49403736148975 141.25430668690703 L 131.49403736148975 141.25430668690703 L 131.49403736148975 141.25430668690703 L 131.49403736148975 141.25430668690703 L 131.49403736148975 141.25430668690703 L 131.49403736148975 141.25430668690703 L 131.49403736148975 141.25430668690703 L 131.49403736148975 141.25430668690703 L 131.49403736148975 141.25430668690703 L 131.49403736148975 141.25430668690703 L 131.49403736148975 141.25430668690703 L 131.49403736148975 141.25430668690703 L 131.49403736148975 141.25430668690703 L 131.49403736148975 141.25430668690703 L 131.49403736148975 141.25430668690703 L 131.49403736148975 141.25430668690703 L 131.49403736148975 141.25430668690703 L 327.0961776210144 335.39924578356846 L 327.0961776210144 335.39924578356846 L 327.0961776210144 335.39924578356846 L 327.0961776210144 335.39924578356846 L 327.0961776210144 335.39924578356846 L 327.0961776210144 335.39924578356846 L 327.0961776210144 335.39924578356846 L 327.0961776210144 335.39924578356846 L 327.0961776210144 335.39924578356846 L 327.0961776210144 335.39924578356846" stroke-linejoin="bevel" stroke-miterlimit="10" stroke-width="2"/></g></g></g><g clip-path="url(#cTQwzEFELsPO)"><g><g><path fill="none" stroke="none"/><path fill="none" stroke="#464646" paint-order="fill stroke markers" d=" M 720.0742734687047 328.0652291113283 L 720.0742734687047 328.0652291113283 L 720.0742734687047 328.0652291113283 L 720.0742734687047 328.0652291113283 L 720.0742734687047 328.0652291113283 L 720.0742734687047 328.0652291113283 L 720.0742734687047 328.0652291113283 L 720.0742734687047 328.0652291113283 L 720.0742734687047 328.0652291113283 L 720.0742734687047 328.0652291113283 L 720.0742734687047 328.0652291113283 L 720.0742734687047 328.0652291113283 L 720.0742734687047 328.0652291113283 L 720.0742734687047 328.0652291113283 L 720.0742734687047 328.0652291113283 L 720.0742734687047 328.0652291113283 L 720.0742734687047 328.0652291113283 L 720.0742734687047 328.0652291113283 L 720.0742734687047 328.0652291113283 L 720.0742734687047 328.0652291113283 L 720.0742734687047 328.0652291113283 L 720.0742734687047 328.0652291113283 L 720.0742734687047 328.0652291113283 L 720.0742734687047 328.0652291113283 L 720.0742734687047 328.0652291113283 L 720.0742734687047 328.0652291113283 L 720.0742734687047 328.0652291113283 L 720.0742734687047 328.0652291113283 L 720.0742734687047 328.0652291113283 L 720.0742734687047 328.0652291113283 L 720.0742734687047 328.0652291113283 L 720.0742734687047 328.0652291113283 L 720.0742734687047 328.0652291113283 L 720.0742734687047 328.0652291113283 L 720.0742734687047 328.0652291113283 L 720.0742734687047 328.0652291113283 L 720.0742734687047 328.0652291113283 L 720.0742734687047 328.0652291113283 L 720.0742734687047 328.0652291113283 L 720.0742734687047 328.0652291113283 L 720.0742734687047 328.0652291113283 L 720.0742734687047 328.0652291113283 L 720.0742734687047 328.0652291113283 L 720.0742734687047 328.0652291113283 L 720.0742734687047 328.0652291113283 L 720.0742734687047 328.0652291113283 L 720.0742734687047 328.0652291113283 L 720.0742734687047 328.0652291113283 L 720.0742734687047 328.0652291113283 L 720.0742734687047 328.0652291113283 L 720.0742734687047 328.0652291113283 L 720.0742734687047 328.0652291113283 L 720.0742734687047 328.0652291113283 L 720.0742734687047 328.0652291113283 L 720.0742734687047 328.0652291113283 L 720.0742734687047 328.0652291113283 L 720.0742734687047 328.0652291113283 L 720.0742734687047 328.0652291113283 L 720.0742734687047 328.0652291113283 L 720.0742734687047 328.0652291113283 L 720.0742734687047 328.0652291113283 L 720.0742734687047 328.0652291113283 L 720.0742734687047 328.0652291113283 L 720.0742734687047 328.0652291113283 L 720.0742734687047 328.0652291113283 L 720.0742734687047 328.0652291113283 L 720.0742734687047 328.0652291113283 L 720.0742734687047 328.0652291113283 L 720.0742734687047 328.0652291113283 L 720.0742734687047 328.0652291113283 L 720.0742734687047 328.0652291113283 L 720.0742734687047 328.0652291113283 L 720.0742734687047 328.0652291113283 L 720.0742734687047 328.0652291113283 L 720.0742734687047 328.0652291113283 L 720.0742734687047 328.0652291113283 L 720.0742734687047 328.0652291113283 L 720.0742734687047 328.0652291113283 L 720.0742734687047 328.0652291113283 L 720.0742734687047 328.0652291113283 L 720.0742734687047 328.0652291113283 L 720.0742734687047 328.0652291113283 L 720.0742734687047 328.0652291113283 L 720.0742734687047 328.0652291113283 L 720.0742734687047 328.0652291113283 L 720.0742734687047 328.0652291113283 L 720.0742734687047 328.0652291113283 L 720.0742734687047 328.0652291113283 L 720.0742734687047 328.0652291113283 L 720.0742734687047 328.0652291113283 L 720.0742734687047 328.0652291113283 L 720.0742734687047 328.0652291113283 L 720.0742734687047 328.0652291113283 L 720.0742734687047 328.0652291113283 L 720.0742734687047 328.0652291113283 L 720.0742734687047 328.0652291113283 L 720.0742734687047 328.0652291113283 L 720.0742734687047 328.0652291113283 L 720.0742734687047 328.0652291113283 L 720.0742734687047 328.0652291113283 L 720.0742734687047 328.0652291113283 L 720.0742734687047 328.0652291113283 L 720.0742734687047 328.0652291113283 L 720.0742734687047 328.0652291113283 L 720.0742734687047 328.0652291113283 L 720.0742734687047 328.0652291113283 L 720.0742734687047 328.0652291113283 L 720.0742734687047 328.0652291113283 L 720.0742734687047 328.0652291113283 L 720.0742734687047 328.0652291113283 L 720.0742734687047 328.0652291113283 L 720.0742734687047 328.0652291113283 L 720.0742734687047 328.0652291113283 L 720.0742734687047 328.0652291113283 L 720.0742734687047 328.0652291113283 L 720.0742734687047 328.0652291113283 L 720.0742734687047 328.0652291113283 L 720.0742734687047 328.0652291113283 L 720.0742734687047 328.0652291113283 L 720.0742734687047 328.0652291113283 L 720.0742734687047 328.0652291113283 L 720.0742734687047 328.0652291113283 L 720.0742734687047 328.0652291113283 L 720.0742734687047 328.0652291113283 L 720.0742734687047 328.0652291113283 L 720.0742734687047 328.0652291113283 L 720.0742734687047 328.0652291113283 L 720.0742734687047 328.0652291113283 L 720.0742734687047 328.0652291113283 L 720.0742734687047 328.0652291113283 L 720.0742734687047 328.0652291113283 L 720.0742734687047 328.0652291113283 L 720.0742734687047 328.0652291113283 L 720.0742734687047 328.0652291113283 L 720.0742734687047 328.0652291113283 L 720.0742734687047 328.0652291113283 L 720.0742734687047 328.0652291113283 L 720.0742734687047 328.0652291113283 L 720.0742734687047 328.0652291113283 L 720.0742734687047 328.0652291113283 L 720.0742734687047 328.0652291113283 L 720.0742734687047 328.0652291113283 L 720.0742734687047 328.0652291113283 L 720.0742734687047 328.0652291113283 L 720.0742734687047 328.0652291113283 L 720.0742734687047 328.0652291113283 L 720.0742734687047 328.0652291113283 L 720.0742734687047 328.0652291113283 L 720.0742734687047 328.0652291113283 L 720.0742734687047 328.0652291113283 L 720.0742734687047 328.0652291113283 L 720.0742734687047 328.0652291113283 L 720.0742734687047 328.0652291113283 L 720.0742734687047 328.0652291113283 L 720.0742734687047 328.0652291113283 L 720.0742734687047 328.0652291113283 L 720.0742734687047 328.0652291113283 L 720.0742734687047 328.0652291113283 L 720.0742734687047 328.0652291113283 L 720.0742734687047 328.0652291113283 L 720.0742734687047 328.0652291113283 L 720.0742734687047 328.0652291113283 L 720.0742734687047 328.0652291113283 L 720.0742734687047 328.0652291113283 L 720.0742734687047 328.0652291113283 L 720.0742734687047 328.0652291113283 L 720.0742734687047 328.0652291113283 L 720.0742734687047 328.0652291113283 L 720.0742734687047 328.0652291113283 L 720.0742734687047 328.0652291113283 L 720.0742734687047 328.0652291113283 L 720.0742734687047 328.0652291113283 L 720.0742734687047 328.0652291113283 L 720.0742734687047 328.0652291113283 L 720.0742734687047 328.0652291113283 L 720.0742734687047 328.0652291113283 L 720.0742734687047 328.0652291113283 L 720.0742734687047 328.0652291113283 L 720.0742734687047 328.0652291113283 L 720.0742734687047 328.0652291113283 L 720.0742734687047 328.0652291113283 L 720.0742734687047 328.0652291113283 L 720.0742734687047 328.0652291113283 L 720.0742734687047 328.0652291113283 L 720.0742734687047 328.0652291113283 L 720.0742734687047 328.0652291113283 L 720.0742734687047 328.0652291113283 L 720.0742734687047 328.0652291113283 L 720.0742734687047 328.0652291113283 L 720.0742734687047 328.0652291113283 L 720.0742734687047 328.0652291113283 L 720.0742734687047 328.0652291113283 L 720.0742734687047 328.0652291113283 L 720.0742734687047 328.0652291113283 L 720.0742734687047 328.0652291113283 L 720.0742734687047 328.0652291113283 L 720.3697457210843 328.0652291113283 L 720.3697457210843 328.0652291113283 L 720.665217973464 328.0652291113283 L 720.9606902075636 328.0652291113283 L 720.9606902075636 328.0652291113283 L 721.2561624782232 328.4966613611391 L 721.2561624782232 328.4966613611391 L 721.5516347488827 328.4966613611391 L 721.5516347488827 328.4966613611391 L 721.5516347488827 328.4966613611391 L 721.8471069464226 328.4966613611391 L 721.8471069464226 328.4966613611391 L 721.8471069464226 328.92809368321986 L 721.8471069464226 328.92809368321986 L 721.8471069464226 328.92809368321986 L 721.8471069464226 328.92809368321986 L 721.8471069464226 328.92809368321986 L 721.8471069464226 328.92809368321986 L 721.8471069464226 329.3595258607607 L 721.8471069464226 329.3595258607607 L 721.8471069464226 329.3595258607607 L 721.8471069464226 329.3595258607607 L 721.8471069464226 329.79095811057147 L 721.8471069464226 329.79095811057147 L 721.8471069464226 329.79095811057147 L 721.5516347488827 329.79095811057147 L 721.5516347488827 330.2223903603823 L 721.5516347488827 330.2223903603823 L 721.5516347488827 330.2223903603823 L 721.5516347488827 330.2223903603823 L 721.2561624782232 330.65382261019306 L 721.2561624782232 330.65382261019306 L 721.2561624782232 330.65382261019306 L 720.9606902075636 330.65382261019306 L 720.9606902075636 331.0852548600039 L 720.9606902075636 331.0852548600039 L 720.665217973464 331.0852548600039 L 720.665217973464 331.51668710981465 L 720.3697457210843 331.51668710981465 L 720.3697457210843 331.51668710981465 L 720.0742734687047 331.9481193596255 L 720.0742734687047 331.9481193596255 L 719.7788012163252 331.9481193596255 L 719.4833289639455 332.3795516094363 L 719.4833289639455 332.3795516094363 L 719.1878567298459 332.3795516094363 L 718.8923844591862 332.8109838592471 L 718.8923844591862 332.8109838592471 L 718.5969121885267 332.8109838592471 L 718.3014398447475 333.2424161090579 L 718.3014398447475 333.2424161090579 L 718.3014398447475 333.2424161090579 L 718.0059676472076 333.6738486479485 L 718.0059676472076 333.6738486479485 L 718.0059676472076 333.6738486479485 L 718.0059676472076 334.1052806086795 L 718.0059676472076 334.1052806086795 L 718.0059676472076 334.1052806086795 L 718.0059676472076 334.5367131475701 L 718.0059676472076 334.5367131475701 L 718.0059676472076 334.5367131475701 L 718.0059676472076 334.9681451083011 L 718.0059676472076 334.9681451083011 L 718.3014398447475 334.9681451083011 L 718.3014398447475 335.3995776471917 L 718.3014398447475 335.3995776471917 L 718.3014398447475 335.8310096079227 L 718.5969121885267 335.8310096079227 L 718.5969121885267 335.8310096079227 L 718.5969121885267 336.26244214681327 L 718.8923843860666 336.26244214681327 L 718.8923843860666 336.26244214681327 L 718.8923843860666 336.6938741075443 L 719.1878566567261 336.6938741075443 L 719.1878566567261 336.6938741075443 L 719.1878566567261 337.1253066464349 L 719.4833289273856 337.1253066464349 L 719.4833289273856 337.1253066464349 L 719.4833289273856 337.55673860716587 L 719.4833289273856 337.55673860716587 L 719.7788011980452 337.9881711460565 L 719.7788011980452 337.9881711460565 L 719.7788011980452 337.9881711460565 L 719.7788011980452 338.41960310678746 L 719.7788011980452 338.41960310678746 L 719.7788011980452 338.41960310678746 L 719.7788011980452 338.85103506751847 L 719.7788011980452 338.85103506751847 L 719.7788011980452 338.85103506751847 L 719.7788011980452 339.2824681845687 L 719.7788011980452 339.2824681845687 L 719.7788011980452 339.7139001452997 L 720.0742734687047 339.7139001452997 L 720.0742734687047 339.7139001452997 L 720.0742734687047 340.1453321060307 L 720.0742734687047 340.1453321060307 L 720.0742734687047 340.1453321060307 L 720.0742734687047 340.57676522308094 L 720.0742734687047 340.57676522308094 L 720.0742734687047 341.0081971838119 L 720.0742734687047 341.0081971838119 L 720.0742734687047 341.0081971838119 L 720.3697457393642 341.4396291445429 L 720.3697457393642 341.4396291445429 L 720.3697457393642 341.4396291445429 L 720.3697457393642 341.8710611052739 L 720.3697457393642 341.8710611052739 L 720.3697457393642 342.3024942223241 L 720.3697457393642 342.3024942223241 L 720.3697457393642 342.3024942223241 L 720.6652180100239 342.73392618305513 L 720.6652180100239 342.73392618305513 L 720.6652180100239 343.1653581437861 L 720.6652180100239 343.1653581437861 L 720.6652180100239 343.1653581437861 L 720.6652180100239 343.5967901045171 L 720.6652180100239 343.5967901045171 L 720.6652180100239 344.0282232215673 L 720.6652180100239 344.0282232215673 L 720.6652180100239 344.4596551822983 L 720.6652180100239 344.4596551822983 L 720.6652180100239 344.8910871430293 L 720.6652180100239 344.8910871430293 L 720.3697457393642 345.32251910376027 L 717.7104953034285 345.32251910376027 L 712.0965220877777 345.7539522208105 L 703.823298216832 345.7539510644913 L 692.5953517855303 345.75394990817205 L 678.7081529440618 346.18538071258376 L 661.275291241859 346.185377243626 L 642.9560085598564 346.1853714620298 L 621.3865296575646 346.6167953285261 L 597.4532755147833 346.61678376533365 L 570.5653034913048 346.61676873318345 L 545.1546904081749 347.0481833491258 L 515.3119817853639 347.04815906642165 L 486.0602392010547 347.04813131475976 L 456.5130042381769 347.4795308985519 L 427.26124293523236 347.4794962089746 L 397.41853431242134 347.91088885485124 L 370.8260546675115 347.9108518526354 L 344.23353758533085 348.3422421858736 L 317.9365128817189 348.34219824574234 L 296.3670292997682 348.773590891619 L 273.32019613678665 349.2049812248572 L 253.22806213586682 349.63637387073385 L 234.9088075318174 349.636336868518 L 218.6578123913945 350.06773413967164 L 203.29325694940678 350.4991337234638 L 189.7015434670186 350.93053561989444 L 178.4735818268257 351.361942141602 L 168.42751482636584 351.79334866330964 L 159.85883484420765 352.2247621229327 L 152.76750444308027 352.6561755825558 L 146.56257630311723 353.51902562818685 L 141.53954280288735 353.9504460257254 L 137.69840394239043 354.3818687359024 L 134.74366734305784 354.8132937587179 L 132.67537044216044 355.24472109417195 L 131.49347580242738 355.676148429626 L 130.60707354126305 356.10758039035693 L 130.31158116269444 356.97044431181894 L 130.6070361039923 357.4018762725499 L 130.9025284825609 357.8333082332809 L 131.78893074372525 358.26474481928886 L 132.9708253834583 358.6961790926583 L 134.15272002319136 358.69618140529684 L 135.63006960422217 359.1276179913048 L 137.10745662252384 359.5590545773128 L 138.88026114485262 359.9904911633207 L 140.3576481631543 360.4219277493287 L 141.83499774418522 360.4219300619672 L 143.31234732521602 360.8533666479752 L 144.78969690624695 360.85336896061364 L 146.26708392454861 361.2848055466216 L 147.44897856428167 361.2848078592601 L 148.63083576674387 361.7162444452681 L 149.51727546517907 361.71624675790656 L 150.4036777263434 361.7162490705451 L 151.2901174247786 362.14768334391454 L 151.88106474464507 362.14768334391454 L 152.4719746272408 362.147685656553 L 153.06292194710727 362.1476879691915 L 153.358414325676 362.1476879691915 L 153.65386926697374 362.1476879691915 L 153.65386926697374 362.1476879691915 L 153.65386926697374 361.7162560084605 L 153.65386926697374 361.7162560084605 L 153.358414325676 361.7162560084605 L 153.06292194710727 361.28482173509104 L 152.7674670058094 361.28482173509104 L 152.47201206451155 361.28482173509104 L 152.17651968594294 360.8533874617216 L 151.58557236607646 360.8533874617216 L 151.2901174247786 360.42195318835206 L 150.699170104912 360.42195318835206 L 150.4036777263434 359.9905189149826 L 149.81273040647682 359.55908464161314 L 149.2218205238812 359.55908464161314 L 148.63087320401462 359.1276503682437 L 148.03992588414815 358.69621609487416 L 147.74443350557954 358.26478413414316 L 147.15348618571295 358.2647818215047 L 146.56253886584648 357.83334754813524 L 146.26708392454861 357.40191558740423 L 145.67613660468214 356.97048131403477 L 145.08518928481556 356.53904704066525 L 144.7897343435177 356.1076150799343 L 144.19878702365122 355.6761808065648 L 143.9032946450826 355.6761808065648 L 143.60783970378475 355.2447465331953 L 143.01689238391816 354.8133145724643 L 142.7214374426203 354.38188029909486 L 142.4259450640517 353.95044833836386 L 142.13049012275383 353.5190140649944 L 141.83499774418522 353.0875821042634 L 141.53954280288735 352.2247158701629 L 141.53954280288735 351.7932839094319 L 141.2440878615895 351.361851948701 L 140.94859548302077 350.93041767533146 L 140.65314054172302 350.4989857146005 L 140.65314054172302 350.0675537538695 L 140.3576481631543 349.63611948050004 L 140.06219322185643 349.20468751976904 L 139.76670084328782 348.7732532463996 L 139.76670084328782 348.3418212856686 L 139.47124590198996 347.47895736420656 L 139.1757909606921 347.0475230908371 L 138.88029858212337 346.6160911301061 L 138.88029858212337 346.18465801305587 L 138.58484364082562 345.75322489600563 L 138.2893512622569 344.8903598182244 L 138.2893512622569 344.45892785749345 L 137.99389632095904 344.0274947404432 L 137.69844137966118 343.596061623393 L 137.40294900109257 343.16462850634275 L 137.40294900109257 342.30176458488074 L 137.1074940597947 341.8703314678305 L 136.8120016812261 341.4388983507803 L 136.8120016812261 341.0074663900493 L 136.51654673992823 340.1446001559488 L 136.2210543613595 339.71316819521786 L 136.22109179863037 339.2817350781676 L 135.92559942006164 338.4188700003864 L 135.92559942006164 337.9874380396554 L 135.63014447876378 337.55600492260515 L 135.33465210019517 337.1245718055549 L 135.33465210019517 336.2617073059333 L 135.0391971588973 335.8302741888831 L 135.0391971588973 335.3988422281521 L 134.74374221759945 334.53597657221127 L 134.74374221759945 334.10454461148026 L 134.74374221759945 333.24168011185867 L 134.44824983903084 331.08451799556525 L 134.44828727630158 326.7701953529173 L 134.44828727630158 319.8672789223248 L 134.15283233500372 310.8072013872182 L 134.15286977227458 299.15852919692753 L 133.85741483097672 286.21556112444387 L 133.85745226824758 272.84116109122925 L 133.56203476422058 258.60389713655263 L 133.56207220149133 243.9351965958681 L 133.26661726019347 229.2665006804605 L 133.26665469746433 214.5978047650529 L 132.97123719343733 200.79197277110728 L 132.97127463070808 187.4175681126157 L 132.97131206797894 174.47460004013206 L 132.67585712668108 163.25735981057238 L 132.67589456395194 152.0401195810127 L 132.6759320012227 142.11717985892295 L 132.38047705992483 133.05711330884918 L 132.67596943849355 124.85990142968339 L 133.8578640782266 118.81984472889559 L 137.40354799742568 115.79983487960959 L 143.01749138025127 116.23128071617151 L 150.69976910124512 118.81988173111142 L 159.8593964032699 123.56565642553718 L 169.905425966459 130.03717746399485 L 180.83785779081245 138.23440784426853" stroke-linejoin="bevel" stroke-miterlimit="10" stroke-width="2"/></g></g></g><g clip-path="url(#DyFTPMFaEIPm)"><g><g><path fill="none" stroke="none"/><path fill="none" stroke="#2877a2" paint-order="fill stroke markers" d=" M 720.3697457193728 328.0652291113283 L 720.3697457193728 328.0652291113283 L 720.0742734687047 328.0652291113283 L 720.3697457193728 328.0652291113283 L 720.3697457193728 328.0652291113283 L 720.3697457193728 328.0652291113283 L 720.3697457193728 328.0652291113283 L 720.3697457193728 328.0652291113283 L 720.3697457193728 328.0652291113283 L 720.0742734687047 328.0652291113283 L 720.3697457193728 328.0652291113283 L 720.3697457193728 328.0652291113283 L 720.3697457193728 328.0652291113283 L 720.3697457193728 328.0652291113283 L 720.3697457193728 328.0652291113283 L 720.3697457193728 328.0652291113283 L 720.3697457193728 328.0652291113283 L 720.3697457193728 328.0652291113283 L 720.3697457193728 328.0652291113283 L 720.3697457193728 328.0652291113283 L 720.3697457193728 328.0652291113283 L 720.3697457193728 328.0652291113283 L 720.3697457193728 328.0652291113283 L 720.3697457193728 328.0652291113283 L 720.6652179700409 328.0652291113283 L 720.3697457193728 328.0652291113283 L 720.3697457193728 328.0652291113283 L 720.3697457193728 328.0652291113283 L 720.3697457199336 328.4966613502683 L 720.3697457193728 328.0652291113283 L 720.3697457193728 328.0652291113283 L 720.3697457193728 328.0652291113283 L 720.3697457193728 328.0652291113283 L 720.6652179700409 328.0652291113283 L 720.0742734687047 328.0652291113283 L 720.3697457193728 328.0652291113283 L 720.3697457193728 328.0652291113283 L 720.3697457193728 328.0652291113283 L 720.0742734687047 328.0652291113283 L 720.0742734687047 328.0652291113283 L 720.3697457193728 328.0652291113283 L 720.3697457193728 328.0652291113283 L 720.3697457193728 328.0652291113283 L 720.3697457193728 328.0652291113283 L 720.3697457193728 328.0652291113283 L 720.0742734687047 328.0652291113283 L 720.3697457193728 328.0652291113283 L 720.3697457193728 328.0652291113283 L 720.3697457193728 328.0652291113283 L 720.9606902254078 328.0652291113283 L 721.5516347314427 328.0652291113283 L 722.1425792367043 328.49666133654637 L 722.4380514971181 328.9280936029303 L 722.4380515016043 329.35952586931415 L 721.8471069922047 329.3595258830361 L 721.8471069955693 329.79095812197613 L 721.5516347482659 330.65382269590975 L 721.2561624917774 331.08525489368395 L 720.6652179790132 331.5166871600679 L 720.0742734687047 331.9481194538957 L 719.1878566934963 332.81098397294153 L 718.5969121723205 333.24241626676934 L 718.3014399115585 333.6738484919874 L 718.0059676449762 334.1052807309274 L 718.3014399014646 334.96814529113914 L 718.5969121583012 335.39957757124495 L 719.1878566800377 336.26244206284696 L 719.483328940239 336.69387431550894 L 719.7788012015617 337.1253065818928 L 720.0742734687047 337.98817114210453 L 720.0742734687047 338.8510356337065 L 720.3697457339529 339.2824679275343 L 720.3697457350744 340.1453324603021 L 720.3697457356352 340.5767646992421 L 720.3697457367567 341.43962923200996 L 720.6652180059302 341.87106149839383 L 720.9606902809242 342.3024937236119 L 720.9606902842887 343.1653582701017 L 720.9606902876534 344.0282228028695 L 720.9606902910181 344.8910873219154 L 707.073493357196 345.7539514704689 L 650.6382886368948 346.18537376100335 L 553.4279095617366 346.61675668329576 L 437.8982484075182 347.4795097939216 L 328.27803194499535 348.3422155638593 L 240.81823472856297 349.63634867400555 L 182.90566370475506 351.3619512644341 L 148.63087457920938 353.08759864327067 L 133.85725477688402 355.24472317295294 L 130.60705513718062 356.9704440602148 L 134.15271816680274 358.696182045012 L 139.76668731343068 360.4219251343703 L 146.26707560823604 361.2848057904166 L 150.40368666911343 361.7162482522011 L 153.35840855642266 362.1476877226031 L 153.94935422079686 361.71625689702233 L 153.35841070754168 361.2848231761126 L 151.58557909291278 360.4219543072115 L 149.81274748234478 359.55908547947615 L 147.44897240044406 358.26478290338724 L 145.67614192193832 356.97048174065793 L 144.19878484312005 355.24474899764124 L 142.42595550298006 353.5190155959715 L 141.53954303898445 351.79328436236807 L 140.6531316881203 349.6361208212145 L 140.06219152918698 347.9103903148738 L 138.88030793382416 345.7532260464574 L 138.28936890260218 343.59606327373234 L 137.40295761454445 341.4388997463007 L 136.51654634330987 339.28173620514707 L 135.9256073513419 337.1245733912562 L 135.33466837528817 334.9674106048092 L 134.74374051463235 328.49592518196306 L 134.15289164031526 291.39274918888003 L 133.56209416765842 234.44368909305837 L 133.26676681398362 178.35749432587295 L 132.97140395472206 136.07713190459654 L 141.24467166510715 115.79983632421201 L 176.99673442790947 135.21437430692393" stroke-linejoin="bevel" stroke-miterlimit="10" stroke-width="2"/></g></g></g><g clip-path="url(#RLvwiMRfufxB)"><g><g><path fill="none" stroke="none"/><path fill="none" stroke="#e58C33" paint-order="fill stroke markers" d=" M 723.2478052377743 327.8238542900874 A 3 3 0 1 1 723.2478037377745 327.8208542905874" stroke-linejoin="bevel" stroke-miterlimit="10" stroke-width="2"/><path fill="none" stroke="#e58C33" paint-order="fill stroke markers" d=" M 723.2478052377743 327.8238542900874 A 3 3 0 1 1 723.2478037377745 327.8208542905874" stroke-linejoin="bevel" stroke-miterlimit="10" stroke-width="2"/></g></g></g><g><g fill="#444444"><path fill="none" stroke="black" paint-order="fill stroke markers" d=" M 42 474 L 810 474" stroke-linejoin="bevel" stroke-miterlimit="10"/><path fill="none" stroke="black" paint-order="fill stroke markers" d=" M 131 480 L 131 472" stroke-linejoin="bevel" stroke-miterlimit="10"/><path fill="none" stroke="black" paint-order="fill stroke markers" d=" M 328 480 L 328 472" stroke-linejoin="bevel" stroke-miterlimit="10"/><path fill="none" stroke="black" paint-order="fill stroke markers" d=" M 524 480 L 524 472" stroke-linejoin="bevel" stroke-miterlimit="10"/><path fill="none" stroke="black" paint-order="fill stroke markers" d=" M 720 480 L 720 472" stroke-linejoin="bevel" stroke-miterlimit="10"/><path fill="none" stroke="black" paint-order="fill stroke markers" d=" M 92 478 L 92 474" stroke-linejoin="bevel" stroke-miterlimit="10"/><path fill="none" stroke="black" paint-order="fill stroke markers" d=" M 53 478 L 53 474" stroke-linejoin="bevel" stroke-miterlimit="10"/><path fill="none" stroke="black" paint-order="fill stroke markers" d=" M 131 478 L 131 474" stroke-linejoin="bevel" stroke-miterlimit="10"/><path fill="none" stroke="black" paint-order="fill stroke markers" d=" M 170 478 L 170 474" stroke-linejoin="bevel" stroke-miterlimit="10"/><path fill="none" stroke="black" paint-order="fill stroke markers" d=" M 210 478 L 210 474" stroke-linejoin="bevel" stroke-miterlimit="10"/><path fill="none" stroke="black" paint-order="fill stroke markers" d=" M 249 478 L 249 474" stroke-linejoin="bevel" stroke-miterlimit="10"/><path fill="none" stroke="black" paint-order="fill stroke markers" d=" M 288 478 L 288 474" stroke-linejoin="bevel" stroke-miterlimit="10"/><path fill="none" stroke="black" paint-order="fill stroke markers" d=" M 328 478 L 328 474" stroke-linejoin="bevel" stroke-miterlimit="10"/><path fill="none" stroke="black" paint-order="fill stroke markers" d=" M 367 478 L 367 474" stroke-linejoin="bevel" stroke-miterlimit="10"/><path fill="none" stroke="black" paint-order="fill stroke markers" d=" M 406 478 L 406 474" stroke-linejoin="bevel" stroke-miterlimit="10"/><path fill="none" stroke="black" paint-order="fill stroke markers" d=" M 445 478 L 445 474" stroke-linejoin="bevel" stroke-miterlimit="10"/><path fill="none" stroke="black" paint-order="fill stroke markers" d=" M 485 478 L 485 474" stroke-linejoin="bevel" stroke-miterlimit="10"/><path fill="none" stroke="black" paint-order="fill stroke markers" d=" M 524 478 L 524 474" stroke-linejoin="bevel" stroke-miterlimit="10"/><path fill="none" stroke="black" paint-order="fill stroke markers" d=" M 563 478 L 563 474" stroke-linejoin="bevel" stroke-miterlimit="10"/><path fill="none" stroke="black" paint-order="fill stroke markers" d=" M 602 478 L 602 474" stroke-linejoin="bevel" stroke-miterlimit="10"/><path fill="none" stroke="black" paint-order="fill stroke markers" d=" M 642 478 L 642 474" stroke-linejoin="bevel" stroke-miterlimit="10"/><path fill="none" stroke="black" paint-order="fill stroke markers" d=" M 681 478 L 681 474" stroke-linejoin="bevel" stroke-miterlimit="10"/><path fill="none" stroke="black" paint-order="fill stroke markers" d=" M 720 478 L 720 474" stroke-linejoin="bevel" stroke-miterlimit="10"/><path fill="none" stroke="black" paint-order="fill stroke markers" d=" M 759 478 L 759 474" stroke-linejoin="bevel" stroke-miterlimit="10"/><path fill="" stroke="black" paint-order="fill stroke markers" d=" M 799 478 L 799 474" stroke-linejoin="bevel" stroke-miterlimit="10"/><g transform="translate(131,485) rotate(0,0,0)"><text fill="" stroke="none" font-family="helvetica" font-size="11px" font-style="normal" font-weight="normal" text-decoration="normal" x="0" y="0" text-anchor="middle" dominant-baseline="hanging">-15</text><g transform="rotate(0,0,0) translate(-131,-485) translate(328,485)"><text fill="" stroke="none" font-family="helvetica" font-size="11px" font-style="normal" font-weight="normal" text-decoration="normal" x="0" y="0" text-anchor="middle" dominant-baseline="hanging">-10</text><g transform="rotate(0,0,0) translate(-328,-485) translate(524,485)"><text fill="" stroke="none" font-family="helvetica" font-size="11px" font-style="normal" font-weight="normal" text-decoration="normal" x="0" y="0" text-anchor="middle" dominant-baseline="hanging">-5</text><g transform="rotate(0,0,0) translate(-524,-485) translate(720,485)"><text fill="" stroke="none" font-family="helvetica" font-size="11px" font-style="normal" font-weight="normal" text-decoration="normal" x="0" y="0" text-anchor="middle" dominant-baseline="hanging">0</text><g transform="rotate(0,0,0) translate(-720,-485) translate(426,503)"><text fill="" stroke="none" font-family="helvetica" font-size="13px" font-style="italic" font-weight="normal" text-decoration="normal" x="0" y="0" text-anchor="middle" dominant-baseline="hanging">[m]</text><g transform="rotate(0,0,0) translate(-426,-503)"/></g></g></g></g></g></g></g><g><g fill="#444444"><path fill="none" stroke="black" paint-order="fill stroke markers" d=" M 42 474 L 42 5" stroke-linejoin="bevel" stroke-miterlimit="10"/><path fill="none" stroke="black" paint-order="fill stroke markers" d=" M 36 406 L 44 406" stroke-linejoin="bevel" stroke-miterlimit="10"/><path fill="none" stroke="black" paint-order="fill stroke markers" d=" M 36 328 L 44 328" stroke-linejoin="bevel" stroke-miterlimit="10"/><path fill="none" stroke="black" paint-order="fill stroke markers" d=" M 36 250 L 44 250" stroke-linejoin="bevel" stroke-miterlimit="10"/><path fill="none" stroke="black" paint-order="fill stroke markers" d=" M 36 173 L 44 173" stroke-linejoin="bevel" stroke-miterlimit="10"/><path fill="none" stroke="black" paint-order="fill stroke markers" d=" M 36 95 L 44 95" stroke-linejoin="bevel" stroke-miterlimit="10"/><path fill="none" stroke="black" paint-order="fill stroke markers" d=" M 36 18 L 44 18" stroke-linejoin="bevel" stroke-miterlimit="10"/><path fill="none" stroke="black" paint-order="fill stroke markers" d=" M 38 421 L 42 421" stroke-linejoin="bevel" stroke-miterlimit="10"/><path fill="none" stroke="black" paint-order="fill stroke markers" d=" M 38 437 L 42 437" stroke-linejoin="bevel" stroke-miterlimit="10"/><path fill="none" stroke="black" paint-order="fill stroke markers" d=" M 38 452 L 42 452" stroke-linejoin="bevel" stroke-miterlimit="10"/><path fill="none" stroke="black" paint-order="fill stroke markers" d=" M 38 468 L 42 468" stroke-linejoin="bevel" stroke-miterlimit="10"/><path fill="none" stroke="black" paint-order="fill stroke markers" d=" M 38 406 L 42 406" stroke-linejoin="bevel" stroke-miterlimit="10"/><path fill="none" stroke="black" paint-order="fill stroke markers" d=" M 38 390 L 42 390" stroke-linejoin="bevel" stroke-miterlimit="10"/><path fill="none" stroke="black" paint-order="fill stroke markers" d=" M 38 375 L 42 375" stroke-linejoin="bevel" stroke-miterlimit="10"/><path fill="none" stroke="black" paint-order="fill stroke markers" d=" M 38 359 L 42 359" stroke-linejoin="bevel" stroke-miterlimit="10"/><path fill="none" stroke="black" paint-order="fill stroke markers" d=" M 38 344 L 42 344" stroke-linejoin="bevel" stroke-miterlimit="10"/><path fill="none" stroke="black" paint-order="fill stroke markers" d=" M 38 328 L 42 328" stroke-linejoin="bevel" stroke-miterlimit="10"/><path fill="none" stroke="black" paint-order="fill stroke markers" d=" M 38 313 L 42 313" stroke-linejoin="bevel" stroke-miterlimit="10"/><path fill="none" stroke="black" paint-order="fill stroke markers" d=" M 38 297 L 42 297" stroke-linejoin="bevel" stroke-miterlimit="10"/><path fill="none" stroke="black" paint-order="fill stroke markers" d=" M 38 282 L 42 282" stroke-linejoin="bevel" stroke-miterlimit="10"/><path fill="none" stroke="black" paint-order="fill stroke markers" d=" M 38 266 L 42 266" stroke-linejoin="bevel" stroke-miterlimit="10"/><path fill="none" stroke="black" paint-order="fill stroke markers" d=" M 38 250 L 42 250" stroke-linejoin="bevel" stroke-miterlimit="10"/><path fill="none" stroke="black" paint-order="fill stroke markers" d=" M 38 235 L 42 235" stroke-linejoin="bevel" stroke-miterlimit="10"/><path fill="none" stroke="black" paint-order="fill stroke markers" d=" M 38 219 L 42 219" stroke-linejoin="bevel" stroke-miterlimit="10"/><path fill="none" stroke="black" paint-order="fill stroke markers" d=" M 38 204 L 42 204" stroke-linejoin="bevel" stroke-miterlimit="10"/><path fill="none" stroke="black" paint-order="fill stroke markers" d=" M 38 188 L 42 188" stroke-linejoin="bevel" stroke-miterlimit="10"/><path fill="none" stroke="black" paint-order="fill stroke markers" d=" M 38 173 L 42 173" stroke-linejoin="bevel" stroke-miterlimit="10"/><path fill="none" stroke="black" paint-order="fill stroke markers" d=" M 38 157 L 42 157" stroke-linejoin="bevel" stroke-miterlimit="10"/><path fill="none" stroke="black" paint-order="fill stroke markers" d=" M 38 142 L 42 142" stroke-linejoin="bevel" stroke-miterlimit="10"/><path fill="none" stroke="black" paint-order="fill stroke markers" d=" M 38 126 L 42 126" stroke-linejoin="bevel" stroke-miterlimit="10"/><path fill="none" stroke="black" paint-order="fill stroke markers" d=" M 38 111 L 42 111" stroke-linejoin="bevel" stroke-miterlimit="10"/><path fill="none" stroke="black" paint-order="fill stroke markers" d=" M 38 95 L 42 95" stroke-linejoin="bevel" stroke-miterlimit="10"/><path fill="none" stroke="black" paint-order="fill stroke markers" d=" M 38 80 L 42 80" stroke-linejoin="bevel" stroke-miterlimit="10"/><path fill="none" stroke="black" paint-order="fill stroke markers" d=" M 38 64 L 42 64" stroke-linejoin="bevel" stroke-miterlimit="10"/><path fill="none" stroke="black" paint-order="fill stroke markers" d=" M 38 49 L 42 49" stroke-linejoin="bevel" stroke-miterlimit="10"/><path fill="none" stroke="black" paint-order="fill stroke markers" d=" M 38 33 L 42 33" stroke-linejoin="bevel" stroke-miterlimit="10"/><path fill="" stroke="black" paint-order="fill stroke markers" d=" M 38 18 L 42 18" stroke-linejoin="bevel" stroke-miterlimit="10"/><g transform="translate(31,406) rotate(0,0,0)"><text fill="" stroke="none" font-family="helvetica" font-size="11px" font-style="normal" font-weight="normal" text-decoration="normal" x="0" y="0" text-anchor="end" dominant-baseline="central">-2</text><g transform="rotate(0,0,0) translate(-31,-406) translate(31,328)"><text fill="" stroke="none" font-family="helvetica" font-size="11px" font-style="normal" font-weight="normal" text-decoration="normal" x="0" y="0" text-anchor="end" dominant-baseline="central">0</text><g transform="rotate(0,0,0) translate(-31,-328) translate(31,250)"><text fill="" stroke="none" font-family="helvetica" font-size="11px" font-style="normal" font-weight="normal" text-decoration="normal" x="0" y="0" text-anchor="end" dominant-baseline="central">2</text><g transform="rotate(0,0,0) translate(-31,-250) translate(31,173)"><text fill="" stroke="none" font-family="helvetica" font-size="11px" font-style="normal" font-weight="normal" text-decoration="normal" x="0" y="0" text-anchor="end" dominant-baseline="central">4</text><g transform="rotate(0,0,0) translate(-31,-173) translate(31,95)"><text fill="" stroke="none" font-family="helvetica" font-size="11px" font-style="normal" font-weight="normal" text-decoration="normal" x="0" y="0" text-anchor="end" dominant-baseline="central">6</text><g transform="rotate(0,0,0) translate(-31,-95) translate(31,18)"><text fill="" stroke="none" font-family="helvetica" font-size="11px" font-style="normal" font-weight="normal" text-decoration="normal" x="0" y="0" text-anchor="end" dominant-baseline="central">8</text><g transform="rotate(0,0,0) translate(-31,-18) translate(15,240) rotate(-90,0,0)"><text fill="" stroke="none" font-family="helvetica" font-size="13px" font-style="italic" font-weight="normal" text-decoration="normal" x="0" y="0" text-anchor="middle" dominant-baseline="alphabetic">[m]</text><g transform="rotate(90,0,0) translate(-15,-240)"/></g></g></g></g></g></g></g></g></g><g clip-path="url(#HIRgotKAHFNJ)"><g><g/><g><path fill="#ffffff" stroke="#e5e5e5" paint-order="fill stroke markers" d=" M 650.9166641235352 15 L 800 15 L 800 147 L 650.9166641235352 147 L 650.9166641235352 15 Z" fill-opacity="0.95" stroke-linejoin="bevel" stroke-miterlimit="10" stroke-opacity="0.5"/><text fill="#444444" stroke="none" font-family="helvetica" font-size="13px" font-style="normal" font-weight="normal" text-decoration="normal" x="685.9166641235352" y="35" text-anchor="start" dominant-baseline="central">Estimated</text><g><path fill="none" stroke="#e0212d" paint-order="fill stroke markers" d=" M 660.9166641235352 35 L 680.9166641235352 35" stroke-linejoin="bevel" stroke-miterlimit="10" stroke-width="2"/></g><text fill="#444444" stroke="none" font-family="helvetica" font-size="13px" font-style="normal" font-weight="normal" text-decoration="normal" x="685.9166641235352" y="58" text-anchor="start" dominant-baseline="central">Setpoint</text><g><path fill="none" stroke="#208900" paint-order="fill stroke markers" d=" M 660.9166641235352 58 L 680.9166641235352 58" stroke-linejoin="bevel" stroke-miterlimit="10" stroke-width="2"/></g><text fill="#444444" stroke="none" font-family="helvetica" font-size="13px" font-style="normal" font-weight="normal" text-decoration="normal" x="685.9166641235352" y="81" text-anchor="start" dominant-baseline="central">Groundtruth</text><g><path fill="none" stroke="#464646" paint-order="fill stroke markers" d=" M 660.9166641235352 81 L 680.9166641235352 81" stroke-linejoin="bevel" stroke-miterlimit="10" stroke-width="2"/></g><text fill="#444444" stroke="none" font-family="helvetica" font-size="13px" font-style="normal" font-weight="normal" text-decoration="normal" x="685.9166641235352" y="104" text-anchor="start" dominant-baseline="central">GPS (projected)</text><g><path fill="none" stroke="#2877a2" paint-order="fill stroke markers" d=" M 660.9166641235352 104 L 680.9166641235352 104" stroke-linejoin="bevel" stroke-miterlimit="10" stroke-width="2"/></g><text fill="#444444" stroke="none" font-family="helvetica" font-size="13px" font-style="normal" font-weight="normal" text-decoration="normal" x="685.9166641235352" y="127" text-anchor="start" dominant-baseline="central">Position Setpoints</text><path fill="none" stroke="#e58C33" paint-order="fill stroke markers" d=" M 674.9166641235352 127 A 4 4 0 1 1 674.9166621235353 126.99600000066667" stroke-linejoin="bevel" stroke-miterlimit="10" stroke-width="2"/></g></g></g><g/></g></svg>